<?xml version="1.0" encoding="UTF-8"?>
<!DOCTYPE svg PUBLIC "-//W3C//DTD SVG 1.1//EN" "http://www.w3.org/Graphics/SVG/1.1/DTD/svg11.dtd">
<svg xmlns="http://www.w3.org/2000/svg" version="1.1" width="512px" height="512px" style="shape-rendering:geometricPrecision; text-rendering:geometricPrecision; image-rendering:optimizeQuality; fill-rule:evenodd; clip-rule:evenodd" xmlns:xlink="http://www.w3.org/1999/xlink">
<g><path style="opacity:0.943" fill="#000000" d="M 259.5,7.5 C 262.518,7.33537 265.518,7.50204 268.5,8C 269.333,8.83333 270.167,9.66667 271,10.5C 272.429,17.7194 272.929,25.0528 272.5,32.5C 286.837,32.3334 301.171,32.5001 315.5,33C 316.667,34.1667 317.833,35.3333 319,36.5C 319.5,46.4944 319.666,56.4944 319.5,66.5C 328.506,66.3336 337.506,66.5002 346.5,67C 347.667,68.1667 348.833,69.3333 350,70.5C 350.333,104.833 350.667,139.167 351,173.5C 352.471,169.419 354.138,165.419 356,161.5C 356.75,160.874 357.584,160.374 358.5,160C 371.833,159.333 385.167,159.333 398.5,160C 399.416,160.374 400.25,160.874 401,161.5C 403.635,168.105 406.635,174.438 410,180.5C 417.675,182.671 425.008,185.671 432,189.5C 437.224,187.471 442.391,185.305 447.5,183C 449.833,182.333 452.167,182.333 454.5,183C 464,191.167 472.833,200 481,209.5C 481.667,212.167 481.667,214.833 481,217.5C 478.833,222.5 476.667,227.5 474.5,232.5C 478.603,239.802 481.937,247.469 484.5,255.5C 489.703,257.957 495.037,260.124 500.5,262C 502.726,263.227 504.226,265.061 505,267.5C 505.667,279.5 505.667,291.5 505,303.5C 504.654,305.848 503.487,307.681 501.5,309C 497.5,310.667 493.5,312.333 489.5,314C 492.56,314.848 495.56,315.848 498.5,317C 499.126,317.75 499.626,318.584 500,319.5C 500.99,368.583 500.657,417.583 499,466.5C 497.352,467.717 495.519,468.55 493.5,469C 420.167,469.333 346.833,469.667 273.5,470C 276.895,479.539 278.395,489.373 278,499.5C 276.833,500.667 275.667,501.833 274.5,503C 186.5,503.667 98.5,503.667 10.5,503C 7.29457,501.585 5.6279,499.085 5.5,495.5C 12.2459,445.948 37.5792,409.448 81.5,386C 88.3896,383.056 95.3896,380.389 102.5,378C 83.5721,365.555 72.5721,348.055 69.5,325.5C 57.245,325.364 50.245,319.197 48.5,307C 49.2162,299.056 53.0495,293.222 60,289.5C 62.6202,255.053 79.4535,230.553 110.5,216C 115.076,206.207 122.743,200.54 133.5,199C 144.44,197.178 154.774,198.844 164.5,204C 168.491,206.989 171.324,210.822 173,215.5C 174.333,216.167 175.667,216.833 177,217.5C 177.333,168.5 177.667,119.5 178,70.5C 179.214,68.9512 180.714,67.7845 182.5,67C 191.16,66.5002 199.827,66.3336 208.5,66.5C 208.334,56.4944 208.5,46.4944 209,36.5C 210.167,35.3333 211.333,34.1667 212.5,33C 226.829,32.5001 241.163,32.3334 255.5,32.5C 255.334,25.825 255.5,19.1583 256,12.5C 256.997,10.6769 258.164,9.01027 259.5,7.5 Z M 225.5,49.5 C 251.167,49.5 276.833,49.5 302.5,49.5C 302.5,55.1667 302.5,60.8333 302.5,66.5C 276.833,66.5 251.167,66.5 225.5,66.5C 225.5,60.8333 225.5,55.1667 225.5,49.5 Z M 194.5,83.5 C 240.833,83.5 287.167,83.5 333.5,83.5C 333.5,206.5 333.5,329.5 333.5,452.5C 326.5,452.5 319.5,452.5 312.5,452.5C 312.667,416.832 312.5,381.165 312,345.5C 307.561,333.732 299.061,327.232 286.5,326C 271.5,325.333 256.5,325.333 241.5,326C 228.539,327.295 220.039,334.129 216,346.5C 215.833,361.844 215.333,377.178 214.5,392.5C 204.338,386.419 193.671,381.419 182.5,377.5C 200.374,365.106 211.208,348.106 215,326.5C 232.982,323.531 238.816,313.531 232.5,296.5C 240.479,295.668 248.479,295.168 256.5,295C 259.102,294.065 260.602,292.232 261,289.5C 261.667,275.833 261.667,262.167 261,248.5C 260.226,246.061 258.726,244.227 256.5,243C 242.167,242.333 227.833,242.333 213.5,243C 212.069,243.465 210.903,244.299 210,245.5C 205.744,239.24 200.744,233.573 195,228.5C 194.5,180.168 194.333,131.834 194.5,83.5 Z M 224.5,119.5 C 250.833,119.5 277.167,119.5 303.5,119.5C 303.5,125.833 303.5,132.167 303.5,138.5C 277.167,138.5 250.833,138.5 224.5,138.5C 224.5,132.167 224.5,125.833 224.5,119.5 Z M 368.5,176.5 C 375.175,176.334 381.842,176.5 388.5,177C 390.637,182.939 393.303,188.606 396.5,194C 407.429,196.966 417.762,201.299 427.5,207C 430.167,207.667 432.833,207.667 435.5,207C 439.833,205.167 444.167,203.333 448.5,201.5C 453.152,205.651 457.652,209.985 462,214.5C 461.246,219.704 459.58,224.704 457,229.5C 456.333,231.833 456.333,234.167 457,236.5C 462.888,246.16 467.222,256.493 470,267.5C 475.486,270.833 481.32,273.5 487.5,275.5C 488.664,282.142 488.831,288.808 488,295.5C 483.013,298.053 477.846,300.219 472.5,302C 471.667,302.833 470.833,303.667 470,304.5C 468.908,307.709 467.741,310.876 466.5,314C 456.483,314.832 446.483,314.666 436.5,313.5C 448.509,283.704 442.842,257.871 419.5,236C 398.479,220.22 375.812,217.386 351.5,227.5C 350.334,217.517 350.168,207.517 351,197.5C 355.026,196.603 358.693,194.937 362,192.5C 363.906,187.028 366.072,181.694 368.5,176.5 Z M 224.5,200.5 C 231.167,200.5 237.833,200.5 244.5,200.5C 244.5,206.833 244.5,213.167 244.5,219.5C 237.833,219.5 231.167,219.5 224.5,219.5C 224.5,213.167 224.5,206.833 224.5,200.5 Z M 283.5,200.5 C 290.167,200.5 296.833,200.5 303.5,200.5C 303.5,206.833 303.5,213.167 303.5,219.5C 296.833,219.5 290.167,219.5 283.5,219.5C 283.5,213.167 283.5,206.833 283.5,200.5 Z M 135.5,215.5 C 140.179,215.334 144.845,215.501 149.5,216C 152.034,216.516 154.2,217.683 156,219.5C 155.248,229.85 153.914,240.183 152,250.5C 151.25,251.126 150.416,251.626 149.5,252C 144.5,252.667 139.5,252.667 134.5,252C 133.667,251.167 132.833,250.333 132,249.5C 130.083,239.185 129.249,228.852 129.5,218.5C 131.604,217.481 133.604,216.481 135.5,215.5 Z M 110.5,234.5 C 111.75,234.577 112.583,235.244 113,236.5C 113.302,245.282 115.302,253.616 119,261.5C 125.329,267.837 132.995,270.504 142,269.5C 153.84,271.247 162.507,266.914 168,256.5C 169.5,249.157 171,241.824 172.5,234.5C 193.43,246.341 204.763,264.341 206.5,288.5C 163.5,288.5 120.5,288.5 77.5,288.5C 79.8661,265.08 90.8661,247.08 110.5,234.5 Z M 372.5,238.5 C 400.143,237.989 417.643,250.989 425,277.5C 427.057,290.725 424.224,302.725 416.5,313.5C 394.51,314.5 372.51,314.833 350.5,314.5C 350.333,292.164 350.5,269.831 351,247.5C 357.565,242.819 364.732,239.819 372.5,238.5 Z M 224.5,259.5 C 231.167,259.5 237.833,259.5 244.5,259.5C 244.5,265.833 244.5,272.167 244.5,278.5C 237.833,278.5 231.167,278.5 224.5,278.5C 224.5,272.167 224.5,265.833 224.5,259.5 Z M 283.5,259.5 C 290.167,259.5 296.833,259.5 303.5,259.5C 303.5,265.833 303.5,272.167 303.5,278.5C 296.833,278.5 290.167,278.5 283.5,278.5C 283.5,272.167 283.5,265.833 283.5,259.5 Z M 66.5,305.5 C 116.834,305.333 167.168,305.5 217.5,306C 217.957,306.414 218.291,306.914 218.5,307.5C 167.837,308.667 117.17,308.833 66.5,308C 65.4019,307.23 65.4019,306.397 66.5,305.5 Z M 86.5,325.5 C 123.5,325.5 160.5,325.5 197.5,325.5C 190.522,354.596 172.022,370.263 142,372.5C 112.6,369.593 94.1,353.927 86.5,325.5 Z M 350.5,331.5 C 394.833,331.5 439.167,331.5 483.5,331.5C 483.5,371.833 483.5,412.167 483.5,452.5C 439.167,452.5 394.833,452.5 350.5,452.5C 350.5,449.167 350.5,445.833 350.5,442.5C 388.835,442.667 427.168,442.5 465.5,442C 467.667,441.167 469.167,439.667 470,437.5C 470.667,425.833 470.667,414.167 470,402.5C 469.167,400.333 467.667,398.833 465.5,398C 427.168,397.5 388.835,397.333 350.5,397.5C 350.5,393.833 350.5,390.167 350.5,386.5C 388.835,386.667 427.168,386.5 465.5,386C 467.667,385.167 469.167,383.667 470,381.5C 470.667,369.833 470.667,358.167 470,346.5C 469.167,344.333 467.667,342.833 465.5,342C 427.168,341.5 388.835,341.333 350.5,341.5C 350.5,338.167 350.5,334.833 350.5,331.5 Z M 242.5,342.5 C 256.837,342.333 271.171,342.5 285.5,343C 289.617,343.806 292.784,345.973 295,349.5C 295.5,383.832 295.667,418.165 295.5,452.5C 286.161,452.666 276.827,452.5 267.5,452C 259.012,434.512 247.512,419.345 233,406.5C 232.333,387.5 232.333,368.5 233,349.5C 235.393,346.06 238.56,343.726 242.5,342.5 Z M 350.5,358.5 C 384.833,358.5 419.167,358.5 453.5,358.5C 453.5,362.167 453.5,365.833 453.5,369.5C 419.167,369.5 384.833,369.5 350.5,369.5C 350.5,365.833 350.5,362.167 350.5,358.5 Z M 139.5,389.5 C 142.079,389.083 144.246,389.75 146,391.5C 151.732,410.197 157.566,428.864 163.5,447.5C 162.57,449.606 161.404,451.606 160,453.5C 154.323,460.009 148.489,466.343 142.5,472.5C 134.627,464.795 127.293,456.628 120.5,448C 126.744,428.435 133.077,408.935 139.5,389.5 Z M 116.5,391.5 C 117.978,391.238 119.311,391.571 120.5,392.5C 114.568,410.464 108.734,428.464 103,446.5C 102.333,449.167 102.333,451.833 103,454.5C 112.5,465.333 122,476.167 131.5,487C 95.8349,487.5 60.1682,487.667 24.5,487.5C 35.7909,436.877 66.4575,404.877 116.5,391.5 Z M 164.5,391.5 C 208.161,400.653 238.328,425.987 255,467.5C 256.99,473.794 258.823,480.127 260.5,486.5C 224.833,487.833 189.167,487.833 153.5,486.5C 162.852,476.315 172.019,465.982 181,455.5C 181.601,453.863 182.101,452.197 182.5,450.5C 176.087,430.929 170.087,411.263 164.5,391.5 Z M 350.5,414.5 C 384.833,414.5 419.167,414.5 453.5,414.5C 453.5,418.167 453.5,421.833 453.5,425.5C 419.167,425.5 384.833,425.5 350.5,425.5C 350.5,421.833 350.5,418.167 350.5,414.5 Z"/></g>
<g><path style="opacity:0.956" fill="#000000" d="M 215.5,102.5 C 249.216,102.028 282.882,102.528 316.5,104C 318.049,105.214 319.215,106.714 320,108.5C 320.667,122.167 320.667,135.833 320,149.5C 319.215,151.286 318.049,152.786 316.5,154C 281.833,154.667 247.167,154.667 212.5,154C 209.898,153.065 208.398,151.232 208,148.5C 207.333,135.5 207.333,122.5 208,109.5C 209.171,105.677 211.671,103.343 215.5,102.5 Z M 224.5,119.5 C 224.5,125.833 224.5,132.167 224.5,138.5C 250.833,138.5 277.167,138.5 303.5,138.5C 303.5,132.167 303.5,125.833 303.5,119.5C 277.167,119.5 250.833,119.5 224.5,119.5 Z"/></g>
<g><path style="opacity:0.939" fill="#000000" d="M 212.5,183.5 C 227.17,183.333 241.837,183.5 256.5,184C 258.726,185.227 260.226,187.061 261,189.5C 261.667,203.167 261.667,216.833 261,230.5C 260.293,232.081 259.46,233.581 258.5,235C 250.599,236.136 242.599,236.636 234.5,236.5C 227.167,236.333 219.833,236.167 212.5,236C 210.185,234.891 208.685,233.057 208,230.5C 207.333,216.833 207.333,203.167 208,189.5C 208.979,187.032 210.479,185.032 212.5,183.5 Z M 224.5,200.5 C 224.5,206.833 224.5,213.167 224.5,219.5C 231.167,219.5 237.833,219.5 244.5,219.5C 244.5,213.167 244.5,206.833 244.5,200.5C 237.833,200.5 231.167,200.5 224.5,200.5 Z"/></g>
<g><path style="opacity:0.94" fill="#000000" d="M 271.5,183.5 C 286.17,183.333 300.837,183.5 315.5,184C 317.815,185.109 319.315,186.943 320,189.5C 320.667,203.167 320.667,216.833 320,230.5C 319.727,232.329 318.893,233.829 317.5,235C 302.259,236.634 286.926,236.968 271.5,236C 268.892,234.622 267.392,232.455 267,229.5C 266.333,216.5 266.333,203.5 267,190.5C 267.904,187.767 269.404,185.433 271.5,183.5 Z M 283.5,200.5 C 283.5,206.833 283.5,213.167 283.5,219.5C 290.167,219.5 296.833,219.5 303.5,219.5C 303.5,213.167 303.5,206.833 303.5,200.5C 296.833,200.5 290.167,200.5 283.5,200.5 Z"/></g>
<g><path style="opacity:0.94" fill="#000000" d="M 272.5,242.5 C 286.837,242.333 301.171,242.5 315.5,243C 317.726,244.227 319.226,246.061 320,248.5C 320.667,262.167 320.667,275.833 320,289.5C 319.727,291.329 318.893,292.829 317.5,294C 309.599,295.136 301.599,295.636 293.5,295.5C 286.167,295.333 278.833,295.167 271.5,295C 268.906,293.661 267.406,291.494 267,288.5C 266.333,275.5 266.333,262.5 267,249.5C 267.938,246.402 269.772,244.069 272.5,242.5 Z M 283.5,259.5 C 283.5,265.833 283.5,272.167 283.5,278.5C 290.167,278.5 296.833,278.5 303.5,278.5C 303.5,272.167 303.5,265.833 303.5,259.5C 296.833,259.5 290.167,259.5 283.5,259.5 Z"/></g>
</svg>
