<?xml version="1.0" encoding="UTF-8"?>
<!DOCTYPE svg PUBLIC "-//W3C//DTD SVG 1.1//EN" "http://www.w3.org/Graphics/SVG/1.1/DTD/svg11.dtd">
<svg xmlns="http://www.w3.org/2000/svg" version="1.1" width="512px" height="512px" style="shape-rendering:geometricPrecision; text-rendering:geometricPrecision; image-rendering:optimizeQuality; fill-rule:evenodd; clip-rule:evenodd" xmlns:xlink="http://www.w3.org/1999/xlink">
<g><path style="opacity:0.966" fill="#000000" d="M 233.5,7.5 C 283.124,3.71271 317.957,24.3794 338,69.5C 340.131,75.3565 341.631,81.3565 342.5,87.5C 350.415,86.8731 355.915,90.2064 359,97.5C 359.667,106.833 359.667,116.167 359,125.5C 356.186,132.49 351.019,135.823 343.5,135.5C 343.667,151.503 343.5,167.503 343,183.5C 337.578,199.982 326.078,208.315 308.5,208.5C 303.482,219.501 295.148,226.501 283.5,229.5C 283.792,233.207 284.792,236.707 286.5,240C 330.464,251.316 364.964,275.816 390,313.5C 393.183,289.849 395.85,266.182 398,242.5C 383.939,231.773 379.273,217.773 384,200.5C 386.547,193.118 391.38,187.785 398.5,184.5C 398.966,172.209 404.966,164.042 416.5,160C 427.573,159.069 438.573,159.403 449.5,161C 456.149,164.314 460.649,169.481 463,176.5C 463.667,241.833 463.667,307.167 463,372.5C 456.833,400 440,416.833 412.5,423C 388.002,426.728 367.835,419.228 352,400.5C 351.5,434.832 351.333,469.165 351.5,503.5C 290.166,503.667 228.832,503.5 167.5,503C 148.56,496.324 140.394,482.824 143,462.5C 111.753,444.887 95.9196,418.054 95.5,382C 95.1786,363.095 98.6786,344.928 106,327.5C 106.667,326.167 106.667,324.833 106,323.5C 87,295.167 68,266.833 49,238.5C 45.0456,224.028 49.2123,212.528 61.5,204C 81.7535,190.972 103.42,187.972 126.5,195C 133.233,197.771 138.399,202.271 142,208.5C 147.54,226.286 153.373,243.953 159.5,261.5C 174.61,251.613 190.944,244.446 208.5,240C 210.208,236.707 211.208,233.207 211.5,229.5C 199.852,226.501 191.518,219.501 186.5,208.5C 168.887,208.363 157.387,200.029 152,183.5C 151.5,167.503 151.333,151.503 151.5,135.5C 143.981,135.823 138.814,132.49 136,125.5C 135.333,116.167 135.333,106.833 136,97.5C 139.085,90.2064 144.585,86.8731 152.5,87.5C 158.798,52.7491 178.131,28.2491 210.5,14C 218.163,11.3384 225.829,9.17171 233.5,7.5 Z M 246.5,23.5 C 249.43,24.299 252.43,24.6323 255.5,24.5C 255.5,45.5 255.5,66.5 255.5,87.5C 250.167,87.5 244.833,87.5 239.5,87.5C 239.5,66.5 239.5,45.5 239.5,24.5C 242.059,24.8016 244.393,24.4682 246.5,23.5 Z M 222.5,27.5 C 223.497,47.3264 223.83,67.3264 223.5,87.5C 205.497,87.6666 187.497,87.4999 169.5,87C 176.812,57.8593 194.478,38.026 222.5,27.5 Z M 271.5,27.5 C 300.155,37.6554 318.155,57.4887 325.5,87C 307.503,87.4999 289.503,87.6666 271.5,87.5C 271.5,67.5 271.5,47.5 271.5,27.5 Z M 151.5,103.5 C 215.5,103.5 279.5,103.5 343.5,103.5C 343.5,108.833 343.5,114.167 343.5,119.5C 279.5,119.5 215.5,119.5 151.5,119.5C 151.5,114.167 151.5,108.833 151.5,103.5 Z M 167.5,135.5 C 172.833,135.5 178.167,135.5 183.5,135.5C 183.5,138.167 183.5,140.833 183.5,143.5C 177.784,142.909 172.617,144.242 168,147.5C 167.501,143.514 167.334,139.514 167.5,135.5 Z M 199.5,135.5 C 231.5,135.5 263.5,135.5 295.5,135.5C 295.667,154.17 295.5,172.836 295,191.5C 294.037,202.795 288.204,210.295 277.5,214C 257.5,216 237.5,216 217.5,214C 206.796,210.295 200.963,202.795 200,191.5C 199.5,172.836 199.333,154.17 199.5,135.5 Z M 311.5,135.5 C 316.833,135.5 322.167,135.5 327.5,135.5C 327.823,139.226 327.489,142.893 326.5,146.5C 321.777,144.118 316.777,143.118 311.5,143.5C 311.5,140.833 311.5,138.167 311.5,135.5 Z M 178.5,160.5 C 180.167,160.5 181.833,160.5 183.5,160.5C 183.5,170.5 183.5,180.5 183.5,190.5C 171.611,189.081 166.778,182.415 169,170.5C 171.022,165.98 174.189,162.647 178.5,160.5 Z M 311.5,160.5 C 320.827,161.16 325.827,166.16 326.5,175.5C 325.827,184.84 320.827,189.84 311.5,190.5C 311.5,180.5 311.5,170.5 311.5,160.5 Z M 423.5,175.5 C 428.844,175.334 434.177,175.501 439.5,176C 442.494,176.406 444.661,177.906 446,180.5C 447.457,197.43 447.957,214.43 447.5,231.5C 435.495,231.667 423.495,231.5 411.5,231C 408,227.5 404.5,224 401,220.5C 398.643,214.059 399.143,207.892 402.5,202C 406.586,199.947 410.92,199.113 415.5,199.5C 415.232,193.618 415.566,187.785 416.5,182C 417.621,178.453 419.954,176.286 423.5,175.5 Z M 102.5,207.5 C 108.649,207.905 114.649,209.072 120.5,211C 126.455,213.573 127.955,217.739 125,223.5C 109.157,237.868 90.9902,242.035 70.5,236C 65.5419,234.062 63.7086,230.562 65,225.5C 68.7154,219.556 73.8821,215.389 80.5,213C 87.7633,210.321 95.0966,208.487 102.5,207.5 Z M 229.5,231.5 C 241.5,231.5 253.5,231.5 265.5,231.5C 267.002,236.488 268.169,241.488 269,246.5C 262.023,255.644 254.857,264.644 247.5,273.5C 240.143,264.644 232.977,255.644 226,246.5C 226.831,241.488 227.998,236.488 229.5,231.5 Z M 132.5,239.5 C 133.117,239.611 133.617,239.944 134,240.5C 138.911,255.309 143.744,270.143 148.5,285C 146.424,288.219 144.924,291.719 144,295.5C 143.667,312.833 143.333,330.167 143,347.5C 122.5,317 102,286.5 81.5,256C 97.6336,256.883 112.634,253.216 126.5,245C 128.996,243.669 130.996,241.836 132.5,239.5 Z M 415.5,247.5 C 426.167,247.5 436.833,247.5 447.5,247.5C 447.941,288.523 447.441,329.523 446,370.5C 436.497,399.162 416.997,410.662 387.5,405C 375.983,401.15 367.149,393.983 361,383.5C 358,377.5 355,371.5 352,365.5C 351.5,355.506 351.334,345.506 351.5,335.5C 346.167,335.5 340.833,335.5 335.5,335.5C 335.5,386.167 335.5,436.833 335.5,487.5C 319.5,487.5 303.5,487.5 287.5,487.5C 287.171,481.794 287.505,476.128 288.5,470.5C 301.222,464.052 306.222,453.719 303.5,439.5C 306.222,425.281 301.222,414.948 288.5,408.5C 287.5,358.504 287.167,308.504 287.5,258.5C 332.761,271.927 365.594,299.927 386,342.5C 385.281,353.481 384.447,364.481 383.5,375.5C 389.161,375.907 394.828,376.24 400.5,376.5C 404.931,333.392 409.931,290.392 415.5,247.5 Z M 208.5,257.5 C 209.873,257.343 211.207,257.51 212.5,258C 216.167,262.333 219.833,266.667 223.5,271C 208.167,271.667 192.833,271.667 177.5,271C 187.425,265.366 197.759,260.866 208.5,257.5 Z M 270.5,271.5 C 271.665,312.998 271.831,354.665 271,396.5C 266.534,392.734 261.367,391.067 255.5,391.5C 255.819,358.809 255.486,326.142 254.5,293.5C 259.839,286.148 265.173,278.815 270.5,271.5 Z M 175.5,287.5 C 181.868,287.17 188.202,287.504 194.5,288.5C 191.805,295.907 190.805,303.574 191.5,311.5C 196.833,311.5 202.167,311.5 207.5,311.5C 206.656,292.812 214.99,285.978 232.5,291C 239.011,297.251 240.177,304.418 236,312.5C 234.062,315.106 231.562,316.939 228.5,318C 210.878,319.596 193.211,319.93 175.5,319C 161.656,315.813 157.49,307.646 163,294.5C 166.464,290.69 170.631,288.356 175.5,287.5 Z M 159.5,332.5 C 162.179,333.226 164.846,334.059 167.5,335C 188.833,335.667 210.167,335.667 231.5,335C 233.871,334.265 236.205,333.432 238.5,332.5C 239.5,352.489 239.833,372.489 239.5,392.5C 235.813,393.176 232.48,394.676 229.5,397C 226.167,400.333 222.833,403.667 219.5,407C 206.471,407.769 193.471,407.436 180.5,406C 173.469,404.934 166.803,402.767 160.5,399.5C 159.5,377.177 159.167,354.843 159.5,332.5 Z M 118.5,343.5 C 126.891,355.261 135.058,367.261 143,379.5C 143.667,382.167 143.667,384.833 143,387.5C 139.985,384.317 136.818,381.317 133.5,378.5C 128.948,381.603 124.614,384.936 120.5,388.5C 135.167,407.632 154.5,419.132 178.5,423C 190.829,423.5 203.162,423.667 215.5,423.5C 215.5,434.167 215.5,444.833 215.5,455.5C 204.495,455.667 193.495,455.5 182.5,455C 145.198,451.699 122.032,431.866 113,395.5C 111.084,377.712 112.917,360.379 118.5,343.5 Z M 246.5,407.5 C 259.295,405.383 264.961,410.716 263.5,423.5C 268.844,423.334 274.177,423.501 279.5,424C 284,424.5 286.5,427 287,431.5C 288.113,438.715 287.446,445.715 285,452.5C 283.352,453.717 281.519,454.55 279.5,455C 263.503,455.5 247.503,455.667 231.5,455.5C 231.333,443.495 231.5,431.495 232,419.5C 236.202,414.439 241.036,410.439 246.5,407.5 Z M 159.5,468.5 C 163.031,469.757 166.698,470.591 170.5,471C 193.164,471.5 215.831,471.667 238.5,471.5C 238.52,478.621 235.187,483.454 228.5,486C 210.878,487.596 193.211,487.93 175.5,487C 165.022,485.352 159.689,479.185 159.5,468.5 Z M 255.5,471.5 C 260.833,471.5 266.167,471.5 271.5,471.5C 271.5,476.833 271.5,482.167 271.5,487.5C 265.132,487.83 258.798,487.496 252.5,486.5C 254.882,481.777 255.882,476.777 255.5,471.5 Z"/></g>
</svg>
