<?xml version="1.0" encoding="UTF-8"?>
<!DOCTYPE svg PUBLIC "-//W3C//DTD SVG 1.1//EN" "http://www.w3.org/Graphics/SVG/1.1/DTD/svg11.dtd">
<svg xmlns="http://www.w3.org/2000/svg" version="1.1" width="512px" height="512px" style="shape-rendering:geometricPrecision; text-rendering:geometricPrecision; image-rendering:optimizeQuality; fill-rule:evenodd; clip-rule:evenodd" xmlns:xlink="http://www.w3.org/1999/xlink">
<g><path style="opacity:0.927" fill="#000000" d="M 62.5,9.5 C 88.5021,9.33336 114.502,9.50003 140.5,10C 240.819,25.4265 341.152,40.7599 441.5,56C 443.848,56.3459 445.681,57.5125 447,59.5C 447.667,75.5 447.667,91.5 447,107.5C 446.097,108.701 444.931,109.535 443.5,110C 438.845,110.499 434.179,110.666 429.5,110.5C 429.666,118.84 429.5,127.173 429,135.5C 428.535,136.931 427.701,138.097 426.5,139C 417.173,139.5 407.839,139.666 398.5,139.5C 398.667,155.837 398.5,172.17 398,188.5C 397.5,189.667 396.667,190.5 395.5,191C 381.868,192.267 376.368,199.434 379,212.5C 384.23,221.132 391.396,223.299 400.5,219C 403.888,216.214 406.554,212.881 408.5,209C 414.088,207.072 417.422,208.905 418.5,214.5C 416.24,223.264 410.907,229.431 402.5,233C 433.275,257.474 463.775,282.308 494,307.5C 495.653,342.082 495.986,376.748 495,411.5C 494.5,413.333 493.333,414.5 491.5,415C 424.5,415.667 357.5,415.667 290.5,415C 288.667,414.5 287.5,413.333 287,411.5C 286.333,377.5 286.333,343.5 287,309.5C 317.534,282.972 348.7,257.139 380.5,232C 366.306,223.441 361.806,211.274 367,195.5C 370.49,187.343 376.49,182.01 385,179.5C 385.5,166.171 385.667,152.837 385.5,139.5C 376.161,139.666 366.827,139.5 357.5,139C 356.667,138.167 355.833,137.333 355,136.5C 354.5,127.84 354.334,119.173 354.5,110.5C 282.833,110.5 211.167,110.5 139.5,110.5C 139.167,226.169 139.5,341.835 140.5,457.5C 161.327,462.815 171.827,476.149 172,497.5C 171.535,498.931 170.701,500.097 169.5,501C 122.5,501.667 75.5,501.667 28.5,501C 25.5715,497.743 24.7382,493.909 26,489.5C 30.1614,471.505 41.3281,460.839 59.5,457.5C 59.5,341.833 59.5,226.167 59.5,110.5C 46.1625,110.667 32.8292,110.5 19.5,110C 18.5838,109.626 17.7504,109.126 17,108.5C 15.3637,92.2586 15.0304,75.9253 16,59.5C 31.3662,42.6365 46.8662,25.9698 62.5,9.5 Z M 72.5,21.5 C 85.5043,21.3334 98.5043,21.5001 111.5,22C 98.9308,31.5348 86.0975,40.7014 73,49.5C 72.5002,40.1726 72.3335,30.8393 72.5,21.5 Z M 139.5,23.5 C 211.524,34.0987 283.524,44.9321 355.5,56C 283.501,56.5 211.501,56.6667 139.5,56.5C 139.5,45.5 139.5,34.5 139.5,23.5 Z M 125.5,28.5 C 126.494,37.6517 126.827,46.985 126.5,56.5C 113.163,56.6666 99.8292,56.4999 86.5,56C 99.68,46.9703 112.68,37.8036 125.5,28.5 Z M 58.5,32.5 C 59.4924,40.3159 59.8257,48.3159 59.5,56.5C 52.1591,56.6663 44.8258,56.4997 37.5,56C 44.7076,48.2957 51.7076,40.4624 58.5,32.5 Z M 28.5,69.5 C 163.833,69.5 299.167,69.5 434.5,69.5C 434.5,78.8333 434.5,88.1667 434.5,97.5C 422.162,97.3335 409.829,97.5001 397.5,98C 393.895,101.315 393.561,104.982 396.5,109C 403.05,110.42 409.716,110.92 416.5,110.5C 416.5,116.167 416.5,121.833 416.5,127.5C 400.167,127.5 383.833,127.5 367.5,127.5C 367.5,121.833 367.5,116.167 367.5,110.5C 372.959,110.897 378.292,110.397 383.5,109C 386.439,104.982 386.105,101.315 382.5,98C 264.5,97.5 146.5,97.3333 28.5,97.5C 28.5,88.1667 28.5,78.8333 28.5,69.5 Z M 72.5,110.5 C 90.5,110.5 108.5,110.5 126.5,110.5C 126.667,121.505 126.5,132.505 126,143.5C 108.602,135.144 91.1024,126.977 73.5,119C 72.5562,116.281 72.2229,113.448 72.5,110.5 Z M 72.5,133.5 C 87.7472,139.79 102.747,146.624 117.5,154C 102.592,160.705 87.7582,167.538 73,174.5C 72.5001,160.837 72.3334,147.171 72.5,133.5 Z M 125.5,164.5 C 126.826,178.672 126.826,193.006 125.5,207.5C 110.016,200.59 94.6822,193.424 79.5,186C 95.0445,179.058 110.378,171.892 125.5,164.5 Z M 72.5,198.5 C 87.4028,204.618 102.069,211.284 116.5,218.5C 102.069,225.716 87.4028,232.382 72.5,238.5C 72.5,225.167 72.5,211.833 72.5,198.5 Z M 124.5,229.5 C 125.83,235.966 126.497,242.799 126.5,250C 126.333,256.833 126.167,263.667 126,270.5C 111.242,263.538 96.4085,256.705 81.5,250C 95.8936,243.135 110.227,236.302 124.5,229.5 Z M 390.5,240.5 C 416.959,261.788 443.293,283.288 469.5,305C 417.167,305.667 364.833,305.667 312.5,305C 338.69,283.636 364.69,262.136 390.5,240.5 Z M 72.5,260.5 C 87.4739,267.319 102.474,274.152 117.5,281C 102.592,287.705 87.7582,294.538 73,301.5C 72.5001,287.837 72.3334,274.171 72.5,260.5 Z M 125.5,291.5 C 126.661,305.661 126.827,319.994 126,334.5C 110.575,327.205 95.0753,320.038 79.5,313C 95.0445,306.058 110.378,298.892 125.5,291.5 Z M 299.5,318.5 C 360.5,318.5 421.5,318.5 482.5,318.5C 482.5,346.5 482.5,374.5 482.5,402.5C 421.5,402.5 360.5,402.5 299.5,402.5C 299.5,374.5 299.5,346.5 299.5,318.5 Z M 72.5,324.5 C 87.6019,331.037 102.602,337.871 117.5,345C 102.592,351.705 87.7582,358.538 73,365.5C 72.5001,351.837 72.3334,338.171 72.5,324.5 Z M 125.5,355.5 C 126.661,369.994 126.828,384.661 126,399.5C 110.396,392.189 94.8961,384.689 79.5,377C 95.0445,370.058 110.378,362.892 125.5,355.5 Z M 72.5,389.5 C 87.5364,395.518 102.203,402.351 116.5,410C 101.803,416.432 87.3034,423.265 73,430.5C 72.5001,416.837 72.3334,403.171 72.5,389.5 Z M 124.5,420.5 C 126.48,432.455 127.146,444.788 126.5,457.5C 108.5,457.5 90.5,457.5 72.5,457.5C 72.1744,453.116 72.5078,448.783 73.5,444.5C 90.7116,436.725 107.712,428.725 124.5,420.5 Z M 58.5,470.5 C 85.5021,470.333 112.502,470.5 139.5,471C 148.518,473.849 154.852,479.682 158.5,488.5C 118.833,489.833 79.1667,489.833 39.5,488.5C 42.7038,479.086 49.0372,473.086 58.5,470.5 Z"/></g>
<g><path style="opacity:0.988" fill="#000000" d="M 198.5,77.5 C 243.501,77.3333 288.501,77.5 333.5,78C 337.048,81.5395 337.048,85.2062 333.5,89C 288.5,89.6667 243.5,89.6667 198.5,89C 194.555,85.1694 194.555,81.3361 198.5,77.5 Z"/></g>
<g><path style="opacity:0.903" fill="#000000" d="M 343.5,77.5 C 348.233,77.2232 352.9,77.5565 357.5,78.5C 360.381,82.3626 360.048,85.8626 356.5,89C 352.167,89.6667 347.833,89.6667 343.5,89C 339.649,85.1878 339.649,81.3545 343.5,77.5 Z"/></g>
<g><path style="opacity:0.9" fill="#000000" d="M 328.5,336.5 C 332.355,335.845 335.188,337.179 337,340.5C 337.667,353.833 337.667,367.167 337,380.5C 334.369,384.629 330.869,385.462 326.5,383C 325.874,382.25 325.374,381.416 325,380.5C 324.333,367.167 324.333,353.833 325,340.5C 325.69,338.65 326.856,337.316 328.5,336.5 Z"/></g>
<g><path style="opacity:0.9" fill="#000000" d="M 368.5,336.5 C 372.355,335.845 375.188,337.179 377,340.5C 377.667,353.833 377.667,367.167 377,380.5C 374.369,384.629 370.869,385.462 366.5,383C 365.874,382.25 365.374,381.416 365,380.5C 364.333,367.167 364.333,353.833 365,340.5C 365.69,338.65 366.856,337.316 368.5,336.5 Z"/></g>
<g><path style="opacity:0.9" fill="#000000" d="M 408.5,336.5 C 412.355,335.845 415.188,337.179 417,340.5C 417.667,353.833 417.667,367.167 417,380.5C 414.369,384.629 410.869,385.462 406.5,383C 405.874,382.25 405.374,381.416 405,380.5C 404.333,367.167 404.333,353.833 405,340.5C 405.69,338.65 406.856,337.316 408.5,336.5 Z"/></g>
<g><path style="opacity:0.9" fill="#000000" d="M 448.5,336.5 C 452.355,335.845 455.188,337.179 457,340.5C 457.667,353.833 457.667,367.167 457,380.5C 454.369,384.629 450.869,385.462 446.5,383C 445.874,382.25 445.374,381.416 445,380.5C 444.333,367.167 444.333,353.833 445,340.5C 445.69,338.65 446.856,337.316 448.5,336.5 Z"/></g>
</svg>
