<?xml version="1.0" encoding="UTF-8"?>
<!DOCTYPE svg PUBLIC "-//W3C//DTD SVG 1.1//EN" "http://www.w3.org/Graphics/SVG/1.1/DTD/svg11.dtd">
<svg xmlns="http://www.w3.org/2000/svg" version="1.1" width="512px" height="512px" style="shape-rendering:geometricPrecision; text-rendering:geometricPrecision; image-rendering:optimizeQuality; fill-rule:evenodd; clip-rule:evenodd" xmlns:xlink="http://www.w3.org/1999/xlink">
<g><path style="opacity:0.963" fill="#000000" d="M 248.5,6.5 C 265.705,4.50472 277.205,11.5047 283,27.5C 283.667,45.5 283.667,63.5 283,81.5C 277.878,86.767 272.878,86.767 268,81.5C 267.927,64.4557 267.26,47.4557 266,30.5C 262.23,23.5864 256.73,21.7531 249.5,25C 247.622,26.5429 246.122,28.3762 245,30.5C 243.74,47.4557 243.073,64.4557 243,81.5C 240.089,85.2771 236.256,86.4437 231.5,85C 230,84.1667 228.833,83 228,81.5C 227.333,63.5 227.333,45.5 228,27.5C 230.99,16.6778 237.823,9.67783 248.5,6.5 Z"/></g>
<g><path style="opacity:0.938" fill="#000000" d="M 200.5,48.5 C 209.207,48.0365 212.707,52.0365 211,60.5C 207.667,65.1667 203.667,69.1667 199,72.5C 187.59,85.6635 181.423,100.997 180.5,118.5C 230.5,118.5 280.5,118.5 330.5,118.5C 329.058,95.6134 319.225,77.2801 301,63.5C 297.599,52.569 301.433,48.4024 312.5,51C 334.928,69.0197 346.928,92.5197 348.5,121.5C 363.985,128.823 370.818,140.823 369,157.5C 365.967,161.938 361.8,164.771 356.5,166C 350.472,166.17 344.472,166.67 338.5,167.5C 340.006,202.659 325.673,229.159 295.5,247C 255.139,264.914 219.973,257.748 190,225.5C 176.476,208.264 170.642,188.764 172.5,167C 166.5,166.667 160.5,166.333 154.5,166C 143.614,162.06 139.78,154.56 143,143.5C 146.6,133.788 153.1,126.788 162.5,122.5C 163.596,91.6361 176.263,66.9694 200.5,48.5 Z M 173.5,135.5 C 228.501,135.333 283.501,135.5 338.5,136C 344.44,138.273 348.773,142.273 351.5,148C 287.499,149.257 223.499,149.424 159.5,148.5C 162.304,142.025 166.971,137.691 173.5,135.5 Z M 189.5,166.5 C 233.5,166.5 277.5,166.5 321.5,166.5C 323.046,197.444 310.046,219.944 282.5,234C 248.228,246.241 220.394,237.741 199,208.5C 191.088,195.522 187.921,181.522 189.5,166.5 Z"/></g>
<g><path style="opacity:0.96" fill="#000000" d="M 511.5,244.5 C 511.5,253.5 511.5,262.5 511.5,271.5C 508.863,274.989 506.363,278.655 504,282.5C 495.529,304.912 486.863,327.245 478,349.5C 469.824,354.955 464.657,352.955 462.5,343.5C 468.542,326.411 474.876,309.411 481.5,292.5C 330.501,291.333 179.501,291.167 28.5,292C 34.8582,308.072 41.0249,324.238 47,340.5C 48.426,350.399 44.2593,353.899 34.5,351C 23.6686,325.826 13.5019,300.326 4,274.5C 2.20496,271.901 0.704964,269.234 -0.5,266.5C -0.5,260.167 -0.5,253.833 -0.5,247.5C 6.66434,231.883 18.9977,223.383 36.5,222C 48.5578,221.085 60.5578,221.419 72.5,223C 79.6851,225.5 85.1851,230 89,236.5C 92.4778,249.078 95.6444,261.744 98.5,274.5C 202.834,274.667 307.167,274.5 411.5,274C 414.894,261.926 418.06,249.759 421,237.5C 429.193,227.653 439.693,222.487 452.5,222C 469.973,220.094 486.306,223.428 501.5,232C 505.838,235.489 509.171,239.656 511.5,244.5 Z M 48.5,237.5 C 54.8495,237.735 61.1828,238.235 67.5,239C 76.657,244.144 76.3236,247.811 66.5,250C 59.4582,250.836 52.4582,251.836 45.5,253C 39.3435,263.167 42.1769,268.334 54,268.5C 62.0471,268.327 69.8804,266.994 77.5,264.5C 79.3522,267.355 80.6855,270.522 81.5,274C 65.1886,273.778 48.8552,273.445 32.5,273C 22.0331,270.549 16.8665,264.049 17,253.5C 20.0355,246.056 25.5355,241.556 33.5,240C 38.6428,239.162 43.6428,238.328 48.5,237.5 Z M 451.5,238.5 C 459.208,238.358 466.875,238.858 474.5,240C 485.295,241.203 492.295,246.869 495.5,257C 493.4,266.177 487.733,271.843 478.5,274C 462.17,274.5 445.837,274.667 429.5,274.5C 429.881,270.976 430.881,267.642 432.5,264.5C 443.191,268.289 454.191,269.789 465.5,269C 471.146,264.922 471.813,260.088 467.5,254.5C 457.755,253.058 448.088,251.058 438.5,248.5C 437.06,245.772 437.726,243.605 440.5,242C 444.102,240.243 447.768,239.076 451.5,238.5 Z"/></g>
<g><path style="opacity:0.933" fill="#000000" d="M 404.5,351.5 C 418.679,352.435 432.679,354.602 446.5,358C 452.852,358.654 459.185,358.488 465.5,357.5C 483.659,358.82 491.825,368.486 490,386.5C 487.677,409.98 477.844,429.48 460.5,445C 444.34,455.898 426.674,459.231 407.5,455C 388.298,448.784 377.465,435.617 375,415.5C 372.78,398.158 375.114,381.491 382,365.5C 387.393,357.242 394.893,352.575 404.5,351.5 Z M 402.5,369.5 C 405.85,369.335 409.183,369.502 412.5,370C 426.035,373.207 439.702,375.707 453.5,377.5C 457.537,377.049 461.537,376.383 465.5,375.5C 470.2,376.368 472.534,379.202 472.5,384C 471.1,402.572 463.767,418.238 450.5,431C 437.155,439.807 422.821,441.807 407.5,437C 398.486,431.83 393.319,423.997 392,413.5C 390.23,399.69 391.897,386.357 397,373.5C 398.812,372.023 400.645,370.69 402.5,369.5 Z"/></g>
<g><path style="opacity:0.932" fill="#000000" d="M 93.5,353.5 C 118.556,351.051 132.39,362.385 135,387.5C 138.239,404.826 136.239,421.493 129,437.5C 122.001,448.088 112.168,454.254 99.5,456C 62.3943,459.545 37.8943,443.712 26,408.5C 22.703,398.057 21.3696,387.39 22,376.5C 24.7441,368.755 29.9107,363.255 37.5,360C 45.8425,359.779 54.1759,359.779 62.5,360C 72.9464,357.745 83.2797,355.579 93.5,353.5 Z M 99.5,369.5 C 104.412,369.063 109.078,369.896 113.5,372C 115.102,373.935 116.269,376.101 117,378.5C 121.45,393.198 121.45,407.865 117,422.5C 114.376,430.277 109.21,435.444 101.5,438C 71.6692,443.169 52.1692,431.335 43,402.5C 40.434,395.012 39.434,387.345 40,379.5C 42.1345,377.516 44.6345,376.182 47.5,375.5C 54.7833,376.632 62.1166,376.799 69.5,376C 79.6447,373.873 89.6447,371.707 99.5,369.5 Z"/></g>
<g><path style="opacity:0.936" fill="#000000" d="M 85.5,463.5 C 90.1264,462.7 93.9597,464.034 97,467.5C 99.3998,477.567 105.566,484.067 115.5,487C 208.833,487.667 302.167,487.667 395.5,487C 405.369,483.964 411.702,477.464 414.5,467.5C 422.303,462.142 427.636,463.976 430.5,473C 426.104,489.728 415.437,500.062 398.5,504C 303.167,504.667 207.833,504.667 112.5,504C 102.153,501.407 93.6535,495.907 87,487.5C 83.6687,482.844 81.502,477.677 80.5,472C 81.1498,468.528 82.8165,465.695 85.5,463.5 Z"/></g>
</svg>
