<?xml version="1.0" encoding="UTF-8"?>
<!DOCTYPE svg PUBLIC "-//W3C//DTD SVG 1.1//EN" "http://www.w3.org/Graphics/SVG/1.1/DTD/svg11.dtd">
<svg xmlns="http://www.w3.org/2000/svg" version="1.1" width="512px" height="512px" style="shape-rendering:geometricPrecision; text-rendering:geometricPrecision; image-rendering:optimizeQuality; fill-rule:evenodd; clip-rule:evenodd" xmlns:xlink="http://www.w3.org/1999/xlink">
<g><path style="opacity:0.956" fill="#000000" d="M 171.5,1.5 C 184.837,1.33344 198.171,1.5001 211.5,2C 213.025,4.90763 214.025,8.07429 214.5,11.5C 254.381,21.8815 279.881,46.8815 291,86.5C 292.679,92.7285 293.513,99.0619 293.5,105.5C 298.179,105.334 302.845,105.501 307.5,106C 308,106.5 308.5,107 309,107.5C 309.667,116.5 309.667,125.5 309,134.5C 307.682,137.801 305.848,140.801 303.5,143.5C 305.848,146.199 307.682,149.199 309,152.5C 313.145,170.385 308.645,185.552 295.5,198C 290.071,201.881 284.071,204.381 277.5,205.5C 277.314,241.549 261.481,268.216 230,285.5C 229.173,289.541 229.34,293.541 230.5,297.5C 242.221,300.555 249.555,307.888 252.5,319.5C 264.567,321.85 276.567,324.517 288.5,327.5C 287.059,313.626 291.726,302.459 302.5,294C 305.382,292.392 308.382,291.059 311.5,290C 331.204,289.924 350.871,289.257 370.5,288C 382.982,282.198 387.149,272.698 383,259.5C 380.872,256.37 378.372,253.537 375.5,251C 365.667,243.167 355.833,235.333 346,227.5C 344.996,224.007 345.496,220.841 347.5,218C 382.541,214.107 409.374,226.94 428,256.5C 433.705,266.781 436.872,277.781 437.5,289.5C 454.17,289.333 470.837,289.5 487.5,290C 498.667,293.167 505.833,300.333 509,311.5C 509.667,370.167 509.667,428.833 509,487.5C 506.33,497.503 500.163,504.336 490.5,508C 330.889,509.662 171.222,509.996 11.5,509C 11,508.5 10.5,508 10,507.5C 9.50012,494.838 9.33345,482.171 9.5,469.5C 6.63544,469.945 4.13544,469.278 2,467.5C 1.33333,456.833 1.33333,446.167 2,435.5C 4.13544,433.722 6.63544,433.055 9.5,433.5C 5.13575,406.471 10.6358,381.804 26,359.5C 36.4322,347.406 49.2656,338.906 64.5,334C 86.4438,328.847 108.444,324.014 130.5,319.5C 133.445,307.888 140.779,300.555 152.5,297.5C 153.66,293.541 153.827,289.541 153,285.5C 121.519,268.216 105.686,241.549 105.5,205.5C 89.1044,202.272 78.6044,192.606 74,176.5C 73.3333,168.5 73.3333,160.5 74,152.5C 75.3182,149.199 77.1516,146.199 79.5,143.5C 77.1516,140.801 75.3182,137.801 74,134.5C 73.3333,125.5 73.3333,116.5 74,107.5C 74.5,107 75,106.5 75.5,106C 80.1548,105.501 84.8215,105.334 89.5,105.5C 93.0287,63.9272 113.695,34.4272 151.5,17C 157.018,14.7038 162.685,12.8705 168.5,11.5C 169.015,7.91916 170.015,4.58583 171.5,1.5 Z M 181.5,13.5 C 188.167,13.5 194.833,13.5 201.5,13.5C 201.5,44.1667 201.5,74.8333 201.5,105.5C 194.833,105.5 188.167,105.5 181.5,105.5C 181.5,74.8333 181.5,44.1667 181.5,13.5 Z M 165.5,25.5 C 166.833,25.5 168.167,25.5 169.5,25.5C 169.5,52.1667 169.5,78.8333 169.5,105.5C 147.167,105.5 124.833,105.5 102.5,105.5C 107.174,65.8411 128.174,39.1744 165.5,25.5 Z M 213.5,25.5 C 246.632,34.4635 268.132,55.4635 278,88.5C 279.419,94.0901 280.252,99.7567 280.5,105.5C 258.167,105.5 235.833,105.5 213.5,105.5C 213.5,78.8333 213.5,52.1667 213.5,25.5 Z M 85.5,117.5 C 156.167,117.5 226.833,117.5 297.5,117.5C 297.725,122.248 297.225,126.915 296,131.5C 293.949,134.553 291.115,136.386 287.5,137C 223.5,137.667 159.5,137.667 95.5,137C 89.6667,136.5 86.5,133.333 86,127.5C 85.5017,124.183 85.335,120.85 85.5,117.5 Z M 95.5,149.5 C 98.8333,149.5 102.167,149.5 105.5,149.5C 105.667,163.837 105.5,178.171 105,192.5C 88.5952,185.355 82.5952,173.022 87,155.5C 88.9425,152.122 91.7759,150.122 95.5,149.5 Z M 117.5,149.5 C 166.833,149.5 216.167,149.5 265.5,149.5C 265.862,172.857 265.362,196.191 264,219.5C 254.753,257.579 230.586,278.245 191.5,281.5C 152.414,278.245 128.247,257.579 119,219.5C 117.638,196.191 117.138,172.857 117.5,149.5 Z M 277.5,149.5 C 283.049,149.087 288.382,149.92 293.5,152C 296.129,155.332 297.462,159.165 297.5,163.5C 297.469,177.574 290.969,187.241 278,192.5C 277.5,178.171 277.333,163.837 277.5,149.5 Z M 372.5,232.5 C 400.585,238.42 417.752,255.753 424,284.5C 424.333,288.167 424.667,291.833 425,295.5C 425.163,297.676 425.996,299.509 427.5,301C 444.833,301.333 462.167,301.667 479.5,302C 490,303.167 495.833,309 497,319.5C 497.667,372.833 497.667,426.167 497,479.5C 495.833,490 490,495.833 479.5,497C 426.167,497.667 372.833,497.667 319.5,497C 309,495.833 303.167,490 302,479.5C 301.833,452.833 301.667,426.167 301.5,399.5C 301.354,371.128 301.854,342.795 303,314.5C 304.743,309.09 308.243,305.256 313.5,303C 333.129,301.743 352.796,301.076 372.5,301C 393.573,293.361 401.406,278.527 396,256.5C 390.65,245.984 382.817,237.984 372.5,232.5 Z M 165.5,290.5 C 182.833,294.5 200.167,294.5 217.5,290.5C 220.353,306.495 215.019,318.662 201.5,327C 184.979,331.822 173.479,326.322 167,310.5C 165.863,303.88 165.363,297.214 165.5,290.5 Z M 151.5,311.5 C 152.496,311.414 153.329,311.748 154,312.5C 161.491,334.838 176.991,344.338 200.5,341C 215.66,336.339 225.66,326.506 230.5,311.5C 240.041,317.607 243.208,326.273 240,337.5C 235.853,350.127 229.853,361.794 222,372.5C 213.167,363.667 204.333,354.833 195.5,346C 192.833,345.333 190.167,345.333 187.5,346C 178.667,354.833 169.833,363.667 161,372.5C 153.147,361.794 147.147,350.127 143,337.5C 140.083,326.705 142.916,318.038 151.5,311.5 Z M 124.5,333.5 C 126.167,333.5 127.833,333.5 129.5,333.5C 129.961,339.303 131.127,344.97 133,350.5C 139.869,363.744 147.369,376.577 155.5,389C 158.167,389.667 160.833,389.667 163.5,389C 165.333,387.167 167.167,385.333 169,383.5C 170.275,385.717 171.275,388.051 172,390.5C 169.199,426.213 165.699,461.88 161.5,497.5C 133.5,497.5 105.5,497.5 77.5,497.5C 77.6666,466.165 77.5,434.832 77,403.5C 73.3333,400.833 69.6667,400.833 66,403.5C 65.5002,413.494 65.3335,423.494 65.5,433.5C 50.8333,433.5 36.1667,433.5 21.5,433.5C 20.8949,418.669 22.0615,404.002 25,389.5C 32.9943,367.506 48.1609,353.006 70.5,346C 88.7012,342.13 106.701,337.964 124.5,333.5 Z M 253.5,333.5 C 265.496,335.832 277.496,338.165 289.5,340.5C 289.333,389.501 289.5,438.501 290,487.5C 291.099,490.864 292.599,494.03 294.5,497C 270.169,497.5 245.836,497.667 221.5,497.5C 217.301,461.88 213.801,426.213 211,390.5C 212,388.167 213,385.833 214,383.5C 215.833,385.333 217.667,387.167 219.5,389C 222.993,390.004 226.159,389.504 229,387.5C 236.253,375.329 243.253,362.996 250,350.5C 251.873,344.97 253.039,339.303 253.5,333.5 Z M 396.5,334.5 C 398.527,334.338 400.527,334.505 402.5,335C 425.667,358.167 448.833,381.333 472,404.5C 473.5,411 471,413.5 464.5,412C 444.167,391.667 423.833,371.333 403.5,351C 400.833,350.333 398.167,350.333 395.5,351C 375.167,371.333 354.833,391.667 334.5,412C 328.333,413.167 325.833,410.667 327,404.5C 350.368,381.299 373.535,357.965 396.5,334.5 Z M 190.5,361.5 C 195.419,364.748 199.753,368.748 203.5,373.5C 201.962,377.407 200.296,381.24 198.5,385C 193.833,385.667 189.167,385.667 184.5,385C 182.704,381.24 181.038,377.407 179.5,373.5C 183.189,369.48 186.855,365.48 190.5,361.5 Z M 398.5,366.5 C 415.748,382.246 432.581,398.579 449,415.5C 449.5,432.163 449.667,448.83 449.5,465.5C 438.833,465.5 428.167,465.5 417.5,465.5C 417.926,455.088 417.426,444.754 416,434.5C 409.572,425.562 401.072,423.062 390.5,427C 387.333,428.833 384.833,431.333 383,434.5C 381.574,444.754 381.074,455.088 381.5,465.5C 370.833,465.5 360.167,465.5 349.5,465.5C 349.333,448.83 349.5,432.163 350,415.5C 366.368,399.299 382.535,382.965 398.5,366.5 Z M 185.5,397.5 C 189.5,397.5 193.5,397.5 197.5,397.5C 201.035,430.852 204.702,464.186 208.5,497.5C 197.167,497.5 185.833,497.5 174.5,497.5C 178.298,464.186 181.965,430.852 185.5,397.5 Z M 396.5,438.5 C 399.365,438.055 401.865,438.722 404,440.5C 405.406,448.749 405.906,457.083 405.5,465.5C 401.5,465.5 397.5,465.5 393.5,465.5C 393.334,458.159 393.5,450.826 394,443.5C 394.366,441.548 395.199,439.882 396.5,438.5 Z M 13.5,445.5 C 30.8333,445.5 48.1667,445.5 65.5,445.5C 65.5,449.5 65.5,453.5 65.5,457.5C 48.1667,457.5 30.8333,457.5 13.5,457.5C 13.5,453.5 13.5,449.5 13.5,445.5 Z M 21.5,469.5 C 36.1667,469.5 50.8333,469.5 65.5,469.5C 65.5,478.833 65.5,488.167 65.5,497.5C 50.8333,497.5 36.1667,497.5 21.5,497.5C 21.5,488.167 21.5,478.833 21.5,469.5 Z"/></g>
<g><path style="opacity:0.903" fill="#000000" d="M 144.5,169.5 C 155.911,167.58 165.411,170.914 173,179.5C 175.167,188 172,191.167 163.5,189C 155.5,180.333 147.5,180.333 139.5,189C 131,191.167 127.833,188 130,179.5C 133.977,174.774 138.811,171.441 144.5,169.5 Z"/></g>
<g><path style="opacity:0.903" fill="#000000" d="M 224.5,169.5 C 235.911,167.58 245.411,170.914 253,179.5C 255.167,188 252,191.167 243.5,189C 235.5,180.333 227.5,180.333 219.5,189C 211,191.167 207.833,188 210,179.5C 213.977,174.774 218.811,171.441 224.5,169.5 Z"/></g>
<g><path style="opacity:0.872" fill="#000000" d="M 187.5,201.5 C 190.187,201.336 192.854,201.503 195.5,202C 197.007,203.473 197.674,205.307 197.5,207.5C 196.858,211.79 195.358,215.79 193,219.5C 184,224.167 180.333,221.5 182,211.5C 183.592,207.979 185.425,204.646 187.5,201.5 Z"/></g>
<g><path style="opacity:0.9" fill="#000000" d="M 164.5,237.5 C 166.857,237.337 169.19,237.503 171.5,238C 184.833,252 198.167,252 211.5,238C 219.667,236.167 222.833,239.333 221,247.5C 207.248,262.488 191.081,265.654 172.5,257C 168.701,254.203 165.201,251.036 162,247.5C 160.863,243.537 161.697,240.204 164.5,237.5 Z"/></g>
<g><path style="opacity:0.934" fill="#000000" d="M 393.5,321.5 C 399.965,320.697 405.965,321.864 411.5,325C 436.028,349.195 460.195,373.695 484,398.5C 488.672,417.661 481.172,426.661 461.5,425.5C 461.5,438.833 461.5,452.167 461.5,465.5C 466.179,465.334 470.845,465.501 475.5,466C 478.167,469.667 478.167,473.333 475.5,477C 424.833,477.667 374.167,477.667 323.5,477C 320.833,473.333 320.833,469.667 323.5,466C 328.155,465.501 332.821,465.334 337.5,465.5C 337.5,452.167 337.5,438.833 337.5,425.5C 317.862,426.692 310.362,417.692 315,398.5C 338.805,373.695 362.972,349.195 387.5,325C 389.432,323.541 391.432,322.375 393.5,321.5 Z M 396.5,334.5 C 373.535,357.965 350.368,381.299 327,404.5C 325.833,410.667 328.333,413.167 334.5,412C 354.833,391.667 375.167,371.333 395.5,351C 398.167,350.333 400.833,350.333 403.5,351C 423.833,371.333 444.167,391.667 464.5,412C 471,413.5 473.5,411 472,404.5C 448.833,381.333 425.667,358.167 402.5,335C 400.527,334.505 398.527,334.338 396.5,334.5 Z M 398.5,366.5 C 382.535,382.965 366.368,399.299 350,415.5C 349.5,432.163 349.333,448.83 349.5,465.5C 360.167,465.5 370.833,465.5 381.5,465.5C 381.074,455.088 381.574,444.754 383,434.5C 384.833,431.333 387.333,428.833 390.5,427C 401.072,423.062 409.572,425.562 416,434.5C 417.426,444.754 417.926,455.088 417.5,465.5C 428.167,465.5 438.833,465.5 449.5,465.5C 449.667,448.83 449.5,432.163 449,415.5C 432.581,398.579 415.748,382.246 398.5,366.5 Z M 396.5,438.5 C 395.199,439.882 394.366,441.548 394,443.5C 393.5,450.826 393.334,458.159 393.5,465.5C 397.5,465.5 401.5,465.5 405.5,465.5C 405.906,457.083 405.406,448.749 404,440.5C 401.865,438.722 399.365,438.055 396.5,438.5 Z"/></g>
<g><path style="opacity:0.892" fill="#000000" d="M 395.5,391.5 C 406.86,390.71 410.193,395.543 405.5,406C 394.964,409.997 390.464,406.497 392,395.5C 392.69,393.65 393.856,392.316 395.5,391.5 Z"/></g>
</svg>
