<?xml version="1.0" encoding="UTF-8"?>
<!DOCTYPE svg PUBLIC "-//W3C//DTD SVG 1.1//EN" "http://www.w3.org/Graphics/SVG/1.1/DTD/svg11.dtd">
<svg xmlns="http://www.w3.org/2000/svg" version="1.1" width="512px" height="512px" style="shape-rendering:geometricPrecision; text-rendering:geometricPrecision; image-rendering:optimizeQuality; fill-rule:evenodd; clip-rule:evenodd" xmlns:xlink="http://www.w3.org/1999/xlink">
<g><path style="opacity:0.924" fill="#000000" d="M 151.5,-0.5 C 162.5,-0.5 173.5,-0.5 184.5,-0.5C 202.01,2.05842 218.677,7.55842 234.5,16C 238.5,20.3333 238.5,24.6667 234.5,29C 231.97,30.4217 229.303,30.755 226.5,30C 196.673,14.2622 165.673,11.2622 133.5,21C 127.619,28.3567 128.952,34.0234 137.5,38C 175.106,42.5569 207.606,57.7236 235,83.5C 237.12,87.3662 236.786,91.0329 234,94.5C 224.599,103.232 215.932,112.565 208,122.5C 205.107,127.314 204.774,132.314 207,137.5C 232.468,166.635 259.634,194.135 288.5,220C 295.5,226 302.5,226 309.5,220C 325.634,206.2 340.801,191.366 355,175.5C 358.74,171.689 361.74,167.356 364,162.5C 364.667,160.167 364.667,157.833 364,155.5C 362.487,151.319 360.154,147.652 357,144.5C 329.159,114.659 299.992,86.1591 269.5,59C 262.936,53.4689 256.102,48.3022 249,43.5C 245.552,36.0677 247.718,31.4011 255.5,29.5C 273.57,40.7202 290.07,54.0536 305,69.5C 316.689,60.3779 328.522,60.2112 340.5,69C 349.069,76.8995 356.903,85.3995 364,94.5C 368.075,104.852 366.909,114.519 360.5,123.5C 365.115,129.287 369.948,134.954 375,140.5C 380.621,149.989 381.955,159.989 379,170.5C 382.349,174.016 385.849,177.349 389.5,180.5C 398.55,176.457 407.55,176.624 416.5,181C 428.474,189.305 437.974,199.805 445,212.5C 447.22,220.411 446.553,228.077 443,235.5C 424.561,255.941 405.394,275.774 385.5,295C 373.556,306.992 360.223,308.992 345.5,301C 337,293.833 329.167,286 322,277.5C 316.658,268.261 316.158,258.761 320.5,249C 317.883,245.38 314.883,242.047 311.5,239C 299.499,242.434 288.499,240.434 278.5,233C 273.968,228.133 269.134,223.633 264,219.5C 246,237.5 228,255.5 210,273.5C 211.029,282.314 209.363,290.648 205,298.5C 169.864,337.303 133.031,374.469 94.5,410C 80.8333,418.667 67.1667,418.667 53.5,410C 40.6667,399.833 29.1667,388.333 19,375.5C 11.1606,363.238 10.494,350.571 17,337.5C 52.4691,298.364 89.6358,260.864 128.5,225C 136.859,219.796 145.859,217.796 155.5,219C 173.5,201 191.5,183 209.5,165C 202.19,158.028 196.023,150.195 191,141.5C 187.856,130.654 189.523,120.654 196,111.5C 202.717,103.905 209.55,96.4053 216.5,89C 190.999,67.9326 161.665,55.5993 128.5,52C 115.035,43.9415 110.868,32.4415 116,17.5C 119.29,10.8786 124.457,6.37859 131.5,4C 138.276,2.37825 144.943,0.878249 151.5,-0.5 Z M 320.5,78.5 C 323.972,78.1262 326.972,79.1262 329.5,81.5C 334.806,87.4729 340.473,93.1396 346.5,98.5C 350.996,102.454 351.496,106.788 348,111.5C 338.5,100.667 328.333,90.5 317.5,81C 318.571,80.1482 319.571,79.3149 320.5,78.5 Z M 219.5,177.5 C 230.76,187.091 241.427,197.425 251.5,208.5C 235.181,225.319 218.681,241.986 202,258.5C 192.833,246.667 182.333,236.167 170.5,227C 187.035,210.632 203.368,194.132 219.5,177.5 Z M 368.5,183.5 C 371.297,185.795 373.964,188.295 376.5,191C 361.167,205 346.5,219.667 332.5,235C 329.215,233.91 326.548,231.743 324.5,228.5C 340.556,214.778 355.223,199.778 368.5,183.5 Z M 398.5,193.5 C 402.463,193.089 406.13,193.922 409.5,196C 417.021,201.888 423.521,208.721 429,216.5C 431,219.833 431,223.167 429,226.5C 409.5,248.667 388.667,269.5 366.5,289C 360.881,290.677 355.881,289.343 351.5,285C 344.542,279.049 338.709,272.215 334,264.5C 333.416,261.743 333.75,259.077 335,256.5C 354.731,233.935 375.898,212.935 398.5,193.5 Z M 146.5,234.5 C 151.33,234.623 155.663,236.123 159.5,239C 172.751,248.916 183.917,260.749 193,274.5C 194.938,280.106 194.271,285.439 191,290.5C 156.833,327.333 121.333,362.833 84.5,397C 77.5,401.667 70.5,401.667 63.5,397C 51.6667,387.833 41.1667,377.333 32,365.5C 28.2606,359.846 27.594,353.846 30,347.5C 64.469,309.364 100.636,272.864 138.5,238C 141.158,236.522 143.825,235.355 146.5,234.5 Z"/></g>
<g><path style="opacity:0.928" fill="#000000" d="M 242.5,281.5 C 253.187,281.52 263.854,282.02 274.5,283C 289.393,287.267 295.226,297.1 292,312.5C 289.987,319.181 285.82,324.014 279.5,327C 269.398,328.634 259.231,329.801 249,330.5C 230.863,327.622 223.53,316.955 227,298.5C 229.256,290.081 234.423,284.415 242.5,281.5 Z M 246.5,297.5 C 255.183,297.668 263.849,298.168 272.5,299C 276.212,301.513 277.378,305.013 276,309.5C 275.097,310.701 273.931,311.535 272.5,312C 263.845,313.221 255.179,313.888 246.5,314C 242.673,310.692 241.506,306.526 243,301.5C 243.69,299.65 244.856,298.316 246.5,297.5 Z"/></g>
<g><path style="opacity:0.933" fill="#000000" d="M 421.5,511.5 C 418.833,511.5 416.167,511.5 413.5,511.5C 405.096,499.702 396.929,487.702 389,475.5C 388.5,439.835 388.333,404.168 388.5,368.5C 379.979,370.089 371.479,371.755 363,373.5C 344.053,371.217 335.386,360.551 337,341.5C 338.348,334.639 341.848,329.139 347.5,325C 361.218,319.055 375.552,315.388 390.5,314C 421.408,310.355 451.741,313.022 481.5,322C 498.743,331.398 502.909,344.898 494,362.5C 488.398,369.634 481.065,373.301 472,373.5C 463.517,371.754 455.017,370.088 446.5,368.5C 446.667,385.837 446.5,403.17 446,420.5C 440.138,426.194 435.138,425.527 431,418.5C 430.833,401.157 430.333,383.824 429.5,366.5C 421.5,365.167 413.5,365.167 405.5,366.5C 404.333,401.162 404.167,435.829 405,470.5C 408.833,476.167 412.667,481.833 416.5,487.5C 417.002,488.521 417.668,488.688 418.5,488C 422.333,482.167 426.167,476.333 430,470.5C 430.079,460.76 430.745,451.093 432,441.5C 437.033,437.221 441.7,437.554 446,442.5C 446.667,453.5 446.667,464.5 446,475.5C 438.058,487.739 429.891,499.739 421.5,511.5 Z M 402.5,328.5 C 428.142,326.93 453.142,330.096 477.5,338C 484.167,344 484.167,350 477.5,356C 475.966,356.923 474.299,357.423 472.5,357.5C 437.19,347.111 401.857,346.945 366.5,357C 355.331,357.497 351.165,352.33 354,341.5C 355.167,340.333 356.333,339.167 357.5,338C 372.261,333.082 387.261,329.916 402.5,328.5 Z"/></g>
<g><path style="opacity:0.92" fill="#000000" d="M 281.5,344.5 C 295.409,342.2 304.909,347.533 310,360.5C 311.991,369.336 310.158,377.17 304.5,384C 297.833,388.667 291.167,393.333 284.5,398C 268.006,406.337 255.84,402.171 248,385.5C 243.603,372.681 247.103,362.848 258.5,356C 266.259,352.121 273.925,348.287 281.5,344.5 Z M 285.5,360.5 C 292.309,360.451 295.142,363.784 294,370.5C 287.768,375.699 281.268,380.532 274.5,385C 268.706,386.955 264.873,384.789 263,378.5C 262.333,376.833 262.333,375.167 263,373.5C 270.318,368.761 277.818,364.428 285.5,360.5 Z"/></g>
<g><path style="opacity:0.926" fill="#000000" d="M 329.5,389.5 C 343.248,389.113 352.081,395.447 356,408.5C 356.667,411.167 356.667,413.833 356,416.5C 352.495,426.511 348.162,436.178 343,445.5C 333.986,455.328 323.486,457.162 311.5,451C 299.227,443.514 295.727,433.014 301,419.5C 305.915,412.672 310.581,405.672 315,398.5C 319.015,393.946 323.848,390.946 329.5,389.5 Z M 331.5,405.5 C 337.033,406.193 339.866,409.193 340,414.5C 336.739,422.857 332.573,430.69 327.5,438C 323.233,438.46 319.4,437.294 316,434.5C 314.699,432.635 314.365,430.635 315,428.5C 319.553,420.023 325.053,412.356 331.5,405.5 Z"/></g>
</svg>
