<?xml version="1.0" encoding="UTF-8"?>
<!DOCTYPE svg PUBLIC "-//W3C//DTD SVG 1.1//EN" "http://www.w3.org/Graphics/SVG/1.1/DTD/svg11.dtd">
<svg xmlns="http://www.w3.org/2000/svg" version="1.1" width="512px" height="512px" style="shape-rendering:geometricPrecision; text-rendering:geometricPrecision; image-rendering:optimizeQuality; fill-rule:evenodd; clip-rule:evenodd" xmlns:xlink="http://www.w3.org/1999/xlink">
<g><path style="opacity:0.976" fill="#000000" d="M 228.5,-0.5 C 246.5,-0.5 264.5,-0.5 282.5,-0.5C 294.348,4.3548 302.015,13.0215 305.5,25.5C 352.236,41.7429 379.069,74.4095 386,123.5C 401.567,130.964 407.9,143.297 405,160.5C 403.062,166.212 400.229,171.379 396.5,176C 408.642,193.941 408.476,211.775 396,229.5C 386.569,239.256 375.069,243.589 361.5,242.5C 355.767,265.299 343.934,284.299 326,299.5C 325.5,308.16 325.334,316.827 325.5,325.5C 375.456,317.965 415.623,333.965 446,373.5C 456.069,388.702 462.402,405.368 465,423.5C 465.667,451.167 465.667,478.833 465,506.5C 463.634,508.362 462.134,510.028 460.5,511.5C 323.833,511.5 187.167,511.5 50.5,511.5C 48.8657,510.028 47.3657,508.362 46,506.5C 45.3333,478.833 45.3333,451.167 46,423.5C 52.8412,382.635 74.6745,352.802 111.5,334C 121.17,330.11 131.17,327.444 141.5,326C 156.163,325.5 170.83,325.333 185.5,325.5C 185.666,316.827 185.5,308.16 185,299.5C 167.567,283.963 155.734,264.963 149.5,242.5C 117.945,241.423 103.445,225.09 106,193.5C 107.912,187.176 110.746,181.343 114.5,176C 110.771,171.379 107.938,166.212 106,160.5C 103.1,143.297 109.433,130.964 125,123.5C 131.931,74.4095 158.764,41.7429 205.5,25.5C 208.985,13.0215 216.652,4.3548 228.5,-0.5 Z M 235.5,19.5 C 248.837,19.3334 262.171,19.5001 275.5,20C 281.18,22.1684 284.347,26.3351 285,32.5C 285.333,54.1667 285.667,75.8333 286,97.5C 289.655,102.275 294.488,103.775 300.5,102C 302.333,100.833 303.833,99.3333 305,97.5C 305.167,81.1565 305.667,64.8231 306.5,48.5C 339.119,62.1348 358.453,86.4681 364.5,121.5C 291.833,122.833 219.167,122.833 146.5,121.5C 152.547,86.4681 171.881,62.1348 204.5,48.5C 205.333,64.8231 205.833,81.1565 206,97.5C 209.655,102.275 214.488,103.775 220.5,102C 222.333,100.833 223.833,99.3333 225,97.5C 225.333,75.8333 225.667,54.1667 226,32.5C 226.773,26.2515 229.94,21.9182 235.5,19.5 Z M 135.5,142.5 C 215.501,142.333 295.501,142.5 375.5,143C 384.496,145.162 386.829,150.328 382.5,158.5C 380.705,160.703 378.371,161.869 375.5,162C 295.5,162.667 215.5,162.667 135.5,162C 126.504,159.838 124.171,154.672 128.5,146.5C 130.525,144.436 132.858,143.102 135.5,142.5 Z M 165.5,182.5 C 225.5,182.5 285.5,182.5 345.5,182.5C 345.909,198.905 345.076,215.238 343,231.5C 333.347,268.486 310.181,292.319 273.5,303C 227.654,308.661 194.487,290.828 174,249.5C 168.653,237.753 165.986,225.42 166,212.5C 165.5,202.506 165.334,192.506 165.5,182.5 Z M 139.5,183.5 C 141.5,183.5 143.5,183.5 145.5,183.5C 145.5,196.167 145.5,208.833 145.5,221.5C 136.661,220.995 130.494,216.662 127,208.5C 124.824,196.852 128.99,188.519 139.5,183.5 Z M 365.5,183.5 C 377.494,184.161 383.828,190.494 384.5,202.5C 383.828,214.506 377.494,220.839 365.5,221.5C 365.5,208.833 365.5,196.167 365.5,183.5 Z M 205.5,313.5 C 229.29,325.7 254.29,328.867 280.5,323C 289.144,321.009 297.311,317.842 305,313.5C 305.667,319.5 305.667,325.5 305,331.5C 288.654,348.679 272.154,365.679 255.5,382.5C 238.846,365.679 222.346,348.679 206,331.5C 205.501,325.509 205.334,319.509 205.5,313.5 Z M 165.5,345.5 C 173.84,345.334 182.173,345.5 190.5,346C 208.667,364.833 226.833,383.667 245,402.5C 245.5,432.165 245.667,461.831 245.5,491.5C 218.833,491.5 192.167,491.5 165.5,491.5C 165.666,482.161 165.5,472.827 165,463.5C 161.345,458.725 156.512,457.225 150.5,459C 148.667,460.167 147.167,461.667 146,463.5C 145.5,472.827 145.334,482.161 145.5,491.5C 138.833,491.5 132.167,491.5 125.5,491.5C 125.167,444.829 125.5,398.162 126.5,351.5C 132.335,349.208 138.335,347.541 144.5,346.5C 145.333,368.826 145.833,391.159 146,413.5C 149.655,418.275 154.488,419.775 160.5,418C 162.333,416.833 163.833,415.333 165,413.5C 165.5,390.836 165.667,368.169 165.5,345.5 Z M 320.5,345.5 C 328.833,345.5 337.167,345.5 345.5,345.5C 345.333,368.169 345.5,390.836 346,413.5C 349.655,418.275 354.488,419.775 360.5,418C 362.333,416.833 363.833,415.333 365,413.5C 365.167,391.159 365.667,368.826 366.5,346.5C 372.665,347.541 378.665,349.208 384.5,351.5C 385.5,398.162 385.833,444.829 385.5,491.5C 378.833,491.5 372.167,491.5 365.5,491.5C 365.666,482.161 365.5,472.827 365,463.5C 361.345,458.725 356.512,457.225 350.5,459C 348.667,460.167 347.167,461.667 346,463.5C 345.5,472.827 345.334,482.161 345.5,491.5C 318.833,491.5 292.167,491.5 265.5,491.5C 265.333,461.831 265.5,432.165 266,402.5C 284.37,383.631 302.537,364.631 320.5,345.5 Z M 104.5,362.5 C 105.499,405.33 105.832,448.33 105.5,491.5C 92.1667,491.5 78.8333,491.5 65.5,491.5C 65.3334,473.83 65.5001,456.164 66,438.5C 67.4531,407.259 80.2864,381.926 104.5,362.5 Z M 405.5,362.5 C 430.51,381.516 443.677,406.849 445,438.5C 445.5,456.164 445.667,473.83 445.5,491.5C 432.167,491.5 418.833,491.5 405.5,491.5C 405.5,448.5 405.5,405.5 405.5,362.5 Z"/></g>
<g><path style="opacity:0.891" fill="#000000" d="M 150.5,428.5 C 162.324,426.824 167.158,431.824 165,443.5C 161.345,448.275 156.512,449.775 150.5,448C 145.725,444.345 144.225,439.512 146,433.5C 147.366,431.638 148.866,429.972 150.5,428.5 Z"/></g>
<g><path style="opacity:0.891" fill="#000000" d="M 350.5,428.5 C 362.324,426.824 367.158,431.824 365,443.5C 361.345,448.275 356.512,449.775 350.5,448C 345.725,444.345 344.225,439.512 346,433.5C 347.366,431.638 348.866,429.972 350.5,428.5 Z"/></g>
</svg>
