<?xml version="1.0" encoding="UTF-8"?>
<!DOCTYPE svg PUBLIC "-//W3C//DTD SVG 1.1//EN" "http://www.w3.org/Graphics/SVG/1.1/DTD/svg11.dtd">
<svg xmlns="http://www.w3.org/2000/svg" version="1.1" width="464px" height="537px" style="shape-rendering:geometricPrecision; text-rendering:geometricPrecision; image-rendering:optimizeQuality; fill-rule:evenodd; clip-rule:evenodd" xmlns:xlink="http://www.w3.org/1999/xlink">
<g><path style="opacity:0.939" fill="#0f0f0f" d="M 322.5,49.5 C 322.229,51.3797 322.896,52.713 324.5,53.5C 326.218,58.8737 327.552,64.3737 328.5,70C 330.691,71.778 333.024,73.278 335.5,74.5C 335.427,76.0269 336.094,77.0269 337.5,77.5C 341.72,86.0986 339.554,92.7653 331,97.5C 330.24,101.819 329.573,106.152 329,110.5C 328.34,112.324 327.173,113.657 325.5,114.5C 323.973,114.427 322.973,115.094 322.5,116.5C 321.026,117.675 319.36,118.675 317.5,119.5C 313.157,130.996 306.324,140.663 297,148.5C 296.172,152.871 296.339,157.205 297.5,161.5C 305.273,164.886 312.94,168.553 320.5,172.5C 322.32,174.448 324.654,175.448 327.5,175.5C 348.082,181.457 367.748,189.624 386.5,200C 388.727,202.564 390.561,205.397 392,208.5C 393.357,236.814 393.857,265.147 393.5,293.5C 392.521,296.625 392.187,299.958 392.5,303.5C 374.5,303.5 356.5,303.5 338.5,303.5C 338.263,304.791 338.596,305.791 339.5,306.5C 340.844,316.29 339.677,325.956 336,335.5C 334.961,336.71 333.794,337.71 332.5,338.5C 331.624,338.369 330.957,338.702 330.5,339.5C 365.494,340.5 400.494,340.833 435.5,340.5C 435.667,363.502 435.5,386.502 435,409.5C 412.242,410.494 389.408,410.827 366.5,410.5C 366.5,426.167 366.5,441.833 366.5,457.5C 395.167,457.5 423.833,457.5 452.5,457.5C 452.5,480.833 452.5,504.167 452.5,527.5C 414.833,527.5 377.167,527.5 339.5,527.5C 339.5,518.167 339.5,508.833 339.5,499.5C 340.823,488.993 340.823,478.326 339.5,467.5C 338.893,467.624 338.56,467.957 338.5,468.5C 326.833,468.5 315.167,468.5 303.5,468.5C 303.5,488.167 303.5,507.833 303.5,527.5C 265.485,528.161 227.819,527.494 190.5,525.5C 191.828,506.329 191.828,486.996 190.5,467.5C 189.893,467.624 189.56,467.957 189.5,468.5C 172.5,468.5 155.5,468.5 138.5,468.5C 138.5,488.167 138.5,507.833 138.5,527.5C 100.833,527.5 63.1667,527.5 25.5,527.5C 24.8435,503.809 25.5101,480.476 27.5,457.5C 48.0039,458.828 68.6706,458.828 89.5,457.5C 89.3764,456.893 89.0431,456.56 88.5,456.5C 88.5,442.5 88.5,428.5 88.5,414.5C 89.4511,413.081 89.7845,411.415 89.5,409.5C 87.2646,409.205 85.2646,409.539 83.5,410.5C 59.1644,410.667 34.8311,410.5 10.5,410C 9.50639,388.575 9.17306,367.075 9.5,345.5C 10.4511,344.081 10.7845,342.415 10.5,340.5C 43.1735,340.833 75.8401,340.5 108.5,339.5C 108.376,338.893 108.043,338.56 107.5,338.5C 102.861,333.526 98.1947,328.526 93.5,323.5C 93.1667,321.167 91.8333,319.833 89.5,319.5C 87.5879,317.343 85.9213,315.009 84.5,312.5C 83.7377,310.738 82.4044,309.738 80.5,309.5C 78.8008,309.34 77.1341,309.506 75.5,310C 67.8333,317 60.1667,324 52.5,331C 46.1267,334.112 41.2934,332.612 38,326.5C 31.4963,306.619 33.8297,287.952 45,270.5C 60.2217,255.766 75.3884,241.432 90.5,227.5C 92.0269,227.573 93.0269,226.906 93.5,225.5C 96.4397,224.17 99.4397,224.337 102.5,226C 107.337,231.67 112.337,237.17 117.5,242.5C 117.427,244.027 118.094,245.027 119.5,245.5C 122.194,247.527 124.527,249.861 126.5,252.5C 127.757,255.427 129.757,257.761 132.5,259.5C 133.167,259.5 133.5,259.833 133.5,260.5C 133.783,261.289 134.283,261.956 135,262.5C 135.5,246.17 135.667,229.837 135.5,213.5C 135.421,210.729 135.921,208.063 137,205.5C 139.167,203.333 141.333,201.167 143.5,199C 156.484,192.341 169.817,186.507 183.5,181.5C 185.38,181.771 186.713,181.104 187.5,179.5C 202.388,174.891 216.721,168.891 230.5,161.5C 231.37,158.04 232.037,154.54 232.5,151C 231.992,149.107 230.992,147.607 229.5,146.5C 228.167,144.5 226.5,142.833 224.5,141.5C 218.347,135.214 213.681,127.881 210.5,119.5C 208.855,118.304 207.189,117.304 205.5,116.5C 205.027,115.094 204.027,114.427 202.5,114.5C 202.5,112.5 201.5,111.5 199.5,111.5C 198.766,110.292 198.433,108.959 198.5,107.5C 199.069,103.671 198.402,100.337 196.5,97.5C 196.5,97.1667 196.5,96.8333 196.5,96.5C 196.027,95.0937 195.027,94.427 193.5,94.5C 186.682,87.1606 187.016,79.9939 194.5,73C 196.345,71.872 198.345,71.372 200.5,71.5C 201.258,59.4452 204.924,48.4452 211.5,38.5C 212.906,38.0269 213.573,37.0269 213.5,35.5C 213.5,34.8333 213.833,34.5 214.5,34.5C 216.262,33.7377 217.262,32.4044 217.5,30.5C 219.46,28.8437 221.46,27.177 223.5,25.5C 225.167,24.5 226.5,23.1667 227.5,21.5C 238.275,13.1314 250.609,9.13137 264.5,9.5C 292.273,10.6084 311.607,23.9418 322.5,49.5 Z M 259.5,20.5 C 262.5,20.5 265.5,20.5 268.5,20.5C 268.666,27.5079 268.5,34.5079 268,41.5C 265.034,44.2652 262.367,43.9318 260,40.5C 259.5,33.8417 259.334,27.175 259.5,20.5 Z M 316.5,73.5 C 316.5,76.5 316.5,79.5 316.5,82.5C 319.833,82.5 323.167,82.5 326.5,82.5C 328.62,83.4033 328.954,84.7367 327.5,86.5C 285.094,86.8275 242.761,86.4941 200.5,85.5C 200.414,84.5041 200.748,83.6708 201.5,83C 204.817,82.5017 208.15,82.335 211.5,82.5C 211.213,73.2278 212.546,64.2278 215.5,55.5C 216.674,54.4863 217.34,53.153 217.5,51.5C 223.53,39.1379 232.863,30.1379 245.5,24.5C 247.436,28.7147 248.103,33.3814 247.5,38.5C 248.024,43.885 250.357,48.2183 254.5,51.5C 256.176,53.8337 258.509,54.8337 261.5,54.5C 270.389,55.8368 276.555,52.1702 280,43.5C 280.333,36.8333 280.667,30.1667 281,23.5C 302.337,33.3485 314.17,50.0152 316.5,73.5 Z M 303.5,122.5 C 302.094,122.973 301.427,123.973 301.5,125.5C 299.677,128.308 297.677,130.975 295.5,133.5C 293.5,134.833 291.833,136.5 290.5,138.5C 268.06,154.08 247.893,151.414 230,130.5C 226.344,125.517 223.511,120.184 221.5,114.5C 221.405,112.214 220.738,110.214 219.5,108.5C 219.277,105.216 218.61,102.049 217.5,99C 248.498,98.5 279.498,98.3334 310.5,98.5C 309.38,106.861 307.046,114.861 303.5,122.5 Z M 282.5,156.5 C 284.308,157.918 284.975,159.918 284.5,162.5C 277.911,170.655 271.078,178.655 264,186.5C 263.617,185.944 263.117,185.611 262.5,185.5C 261.92,183.251 260.587,181.585 258.5,180.5C 256.471,178.142 254.471,175.808 252.5,173.5C 251.92,171.251 250.587,169.585 248.5,168.5C 248.167,167.5 247.5,166.833 246.5,166.5C 246.573,164.973 245.906,163.973 244.5,163.5C 243.203,161.307 243.203,158.973 244.5,156.5C 257.312,161.808 269.978,161.808 282.5,156.5 Z M 256.5,203.5 C 253.833,203.167 251.167,202.833 248.5,202.5C 241.98,199.907 235.647,196.74 229.5,193C 227.195,191.374 225.195,189.54 223.5,187.5C 223.167,186.5 222.5,185.833 221.5,185.5C 221.167,184.5 220.5,183.833 219.5,183.5C 219.443,182.391 219.11,181.391 218.5,180.5C 224.471,177.674 230.471,175.174 236.5,173C 245.354,183.02 254.021,193.186 262.5,203.5C 260.484,204.694 258.484,204.694 256.5,203.5 Z M 293.5,195.5 C 291.77,196.026 290.436,197.026 289.5,198.5C 287.447,198.402 285.78,199.069 284.5,200.5C 279.115,202.221 273.615,203.554 268,204.5C 266.93,204.472 266.097,204.139 265.5,203.5C 266.5,203.167 267.167,202.5 267.5,201.5C 276.072,192.011 284.405,182.344 292.5,172.5C 298.087,175.462 303.754,178.128 309.5,180.5C 305.431,186.904 300.098,191.904 293.5,195.5 Z M 224.5,203.5 C 224.973,204.906 225.973,205.573 227.5,205.5C 227.842,206.338 228.508,206.672 229.5,206.5C 229.973,207.906 230.973,208.573 232.5,208.5C 246.289,215.22 260.622,217.22 275.5,214.5C 278.495,214.706 281.162,214.04 283.5,212.5C 290.533,210.544 297.199,207.711 303.5,204C 310.343,198.323 316.677,192.156 322.5,185.5C 330.244,188.802 338.077,191.802 346,194.5C 346.5,226.832 346.667,259.165 346.5,291.5C 339.5,292.833 332.5,292.833 325.5,291.5C 333.793,284.818 334.626,277.152 328,268.5C 326.158,266.136 324.325,263.803 322.5,261.5C 321.833,260.167 320.833,259.167 319.5,258.5C 317.14,254.982 313.806,252.982 309.5,252.5C 304.971,253.103 300.971,254.77 297.5,257.5C 296.391,257.443 295.391,257.11 294.5,256.5C 294.79,252.064 294.29,247.73 293,243.5C 291.833,241 290,239.167 287.5,238C 277.563,235.337 267.563,234.671 257.5,236C 256.5,236.833 255.5,237.667 254.5,238.5C 252.879,243.037 250.879,247.371 248.5,251.5C 244.726,249.229 241.393,246.396 238.5,243C 236.19,242.503 233.857,242.337 231.5,242.5C 228.911,242.461 226.911,243.461 225.5,245.5C 221.067,248.084 216.734,250.918 212.5,254C 207.902,257.795 206.069,262.628 207,268.5C 208.309,272.099 209.809,275.599 211.5,279C 205.89,280.581 200.223,282.081 194.5,283.5C 192.187,286.437 190.854,289.77 190.5,293.5C 187.5,293.5 184.5,293.5 181.5,293.5C 181.333,260.498 181.5,227.498 182,194.5C 190.1,191.784 198.1,188.784 206,185.5C 211.32,192.319 217.486,198.319 224.5,203.5 Z M 169.5,199.5 C 170.497,220.66 170.831,241.993 170.5,263.5C 170.5,273.5 170.5,283.5 170.5,293.5C 162.833,293.5 155.167,293.5 147.5,293.5C 146.154,266.164 146.32,238.831 148,211.5C 154.746,206.874 161.913,202.874 169.5,199.5 Z M 359.5,199.5 C 361.181,201.008 363.181,202.008 365.5,202.5C 370.784,205.137 375.784,208.137 380.5,211.5C 381.491,238.426 381.824,265.426 381.5,292.5C 373.833,292.5 366.167,292.5 358.5,292.5C 358.169,261.329 358.502,230.329 359.5,199.5 Z M 104.5,245.5 C 105.08,247.749 106.413,249.415 108.5,250.5C 113.184,255.185 117.518,260.185 121.5,265.5C 119.477,267.853 117.477,270.186 115.5,272.5C 113.589,273.075 111.922,274.075 110.5,275.5C 108.706,273.203 106.706,271.037 104.5,269C 103.423,268.53 102.423,268.697 101.5,269.5C 99.1667,271.167 97.1667,273.167 95.5,275.5C 92.7792,276.696 91.6126,278.696 92,281.5C 96.3679,285.533 100.368,289.866 104,294.5C 101.891,298.959 98.5576,302.625 94,305.5C 91.1412,302.624 87.9746,300.124 84.5,298C 80.0804,297.232 75.7471,297.398 71.5,298.5C 69.9731,298.427 68.9731,299.094 68.5,300.5C 67.8333,300.5 67.5,300.833 67.5,301.5C 65.2512,302.08 63.5846,303.413 62.5,305.5C 57.887,309.939 53.0536,314.273 48,318.5C 43.2026,300.563 47.2026,284.897 60,271.5C 64.3333,267.833 68.6667,264.167 73,260.5C 73.3826,261.056 73.8826,261.389 74.5,261.5C 74.7376,263.404 75.7376,264.738 77.5,265.5C 78.5383,267.519 79.8716,267.853 81.5,266.5C 86.8119,264.04 89.9785,260.04 91,254.5C 89.2567,252.679 87.7567,250.679 86.5,248.5C 89.4564,244.603 92.9564,241.27 97,238.5C 99.4946,240.804 101.995,243.137 104.5,245.5 Z M 286.5,266.5 C 286.5,266.833 286.5,267.167 286.5,267.5C 276.671,263.073 266.338,261.406 255.5,262.5C 259.224,257.718 261.891,252.385 263.5,246.5C 269.639,246.357 275.639,247.19 281.5,249C 282.7,253.391 283.534,257.891 284,262.5C 284.2,264.32 285.034,265.653 286.5,266.5 Z M 238.5,258.5 C 238.973,259.906 239.973,260.573 241.5,260.5C 242.911,262.539 244.911,263.539 247.5,263.5C 248.5,263.5 249.5,263.5 250.5,263.5C 247.19,265.299 243.19,267.132 238.5,269C 236.004,270.331 234.004,272.164 232.5,274.5C 230.251,275.08 228.585,276.413 227.5,278.5C 226.075,279.922 225.075,281.589 224.5,283.5C 223.833,280.833 223.167,278.167 222.5,275.5C 221.958,272.088 220.625,269.088 218.5,266.5C 219.167,265.5 219.833,264.5 220.5,263.5C 224.213,259.891 228.38,256.891 233,254.5C 234.981,255.65 236.814,256.984 238.5,258.5 Z M 317.5,274.5 C 317.427,276.027 318.094,277.027 319.5,277.5C 319.414,278.496 319.748,279.329 320.5,280C 315.962,283.025 313.296,287.191 312.5,292.5C 311.698,293.952 311.198,295.618 311,297.5C 308.342,288.366 303.508,280.699 296.5,274.5C 295.833,273.167 294.833,272.167 293.5,271.5C 292.711,271.217 292.044,270.717 291.5,270C 293.473,269.505 295.473,269.338 297.5,269.5C 301.535,268.855 305.368,267.521 309,265.5C 312.29,268.09 315.123,271.09 317.5,274.5 Z M 203.5,328.5 C 200.757,330.239 198.757,332.573 197.5,335.5C 194.9,339.39 194.9,343.39 197.5,347.5C 197.932,348.71 198.599,349.71 199.5,350.5C 202.411,355.746 206.078,360.413 210.5,364.5C 211.401,366.727 213.067,367.727 215.5,367.5C 217.628,368.629 219.961,368.796 222.5,368C 225.971,365.928 229.638,364.428 233.5,363.5C 233.752,369.39 234.919,375.056 237,380.5C 241.956,383.785 247.456,385.618 253.5,386C 259.612,386.909 265.612,386.576 271.5,385C 274.523,380.246 277.356,375.413 280,370.5C 283.263,372.831 286.429,375.331 289.5,378C 292.833,378.667 296.167,378.667 299.5,378C 303.009,375.97 306.342,373.804 309.5,371.5C 311.027,371.573 312.027,370.906 312.5,369.5C 322.998,362.069 324.331,353.069 316.5,342.5C 318.108,341.682 319.775,341.015 321.5,340.5C 322.5,359.488 322.833,378.488 322.5,397.5C 299.5,398.167 276.5,398.833 253.5,399.5C 253.5,418.833 253.5,438.167 253.5,457.5C 236.167,457.5 218.833,457.5 201.5,457.5C 201.5,437.833 201.5,418.167 201.5,398.5C 175.167,398.5 148.833,398.5 122.5,398.5C 122.5,384.5 122.5,370.5 122.5,356.5C 123.391,357.11 124.391,357.443 125.5,357.5C 136.589,371.093 148.589,383.926 161.5,396C 164.303,396.755 166.97,396.422 169.5,395C 175.333,389.833 181.167,384.667 187,379.5C 190.333,375.167 190.333,370.833 187,366.5C 172.906,351.911 159.073,337.245 145.5,322.5C 143.906,319.236 141.573,316.569 138.5,314.5C 136.263,312.353 134.263,310.02 132.5,307.5C 130.833,305.167 128.833,303.167 126.5,301.5C 122.481,297.479 118.814,293.146 115.5,288.5C 121.846,282.654 128.012,276.654 134,270.5C 134.256,281.858 134.756,293.192 135.5,304.5C 153.167,304.5 170.833,304.5 188.5,304.5C 187.931,309.777 188.765,314.777 191,319.5C 194.899,321.971 199.066,323.971 203.5,325.5C 204.562,326.425 204.562,327.425 203.5,328.5 Z M 281.5,342.5 C 280.29,342.932 279.29,343.599 278.5,344.5C 263.875,349.374 250.542,347.041 238.5,337.5C 238.262,335.596 237.262,334.262 235.5,333.5C 235.5,332.833 235.167,332.5 234.5,332.5C 234.573,330.973 233.906,329.973 232.5,329.5C 222.583,307.832 227.583,290.498 247.5,277.5C 249.553,277.598 251.22,276.931 252.5,275.5C 272.543,271.106 287.71,277.772 298,295.5C 302.841,309.684 300.841,322.684 292,334.5C 289.069,338.034 285.569,340.701 281.5,342.5 Z M 220.5,288.5 C 218.701,293.733 217.201,299.067 216,304.5C 215.188,308.689 215.355,312.689 216.5,316.5C 216.768,318.099 216.434,319.432 215.5,320.5C 214.746,317.909 213.079,316.076 210.5,315C 207.361,313.272 204.028,312.106 200.5,311.5C 199.749,305.407 200.416,299.407 202.5,293.5C 208.833,292.837 214.833,291.171 220.5,288.5 Z M 249.5,317.5 C 248.756,313.881 248.423,310.215 248.5,306.5C 254.745,294.365 263.745,291.865 275.5,299C 282.944,309.005 281.61,317.672 271.5,325C 262.033,328.963 254.7,326.463 249.5,317.5 Z M 312.5,301.5 C 313.167,301.5 313.5,301.833 313.5,302.5C 313.973,303.906 314.973,304.573 316.5,304.5C 316.973,305.906 317.973,306.573 319.5,306.5C 322.12,308.105 324.953,309.438 328,310.5C 328.624,316.593 328.124,322.593 326.5,328.5C 320.226,328.059 314.226,329.059 308.5,331.5C 312.1,321.865 313.433,311.865 312.5,301.5 Z M 155.5,350.5 C 156.167,351.833 157.167,352.833 158.5,353.5C 161.87,356.535 164.87,359.868 167.5,363.5C 168.167,364.833 169.167,365.833 170.5,366.5C 172.144,368.481 173.81,370.481 175.5,372.5C 173.81,374.519 172.144,376.519 170.5,378.5C 168.246,379.415 166.246,380.748 164.5,382.5C 163.833,382.167 163.167,381.833 162.5,381.5C 160.906,378.236 158.573,375.569 155.5,373.5C 153.527,370.861 151.194,368.527 148.5,366.5C 148.262,364.596 147.262,363.262 145.5,362.5C 136.506,352.173 127.172,342.173 117.5,332.5C 116.92,330.251 115.587,328.585 113.5,327.5C 109.699,323.527 106.032,319.36 102.5,315C 105.778,310.681 109.778,307.681 114.5,306C 128.033,321.03 141.699,335.863 155.5,350.5 Z M 218.5,325.5 C 221.231,336.653 227.564,344.986 237.5,350.5C 234.833,351.167 232.167,351.833 229.5,352.5C 225.973,353.26 222.64,354.594 219.5,356.5C 216.176,353.006 213.009,349.339 210,345.5C 208.581,341.121 209.914,337.455 214,334.5C 215.411,332.35 216.245,330.016 216.5,327.5C 217.167,326.833 217.833,326.167 218.5,325.5 Z M 303.5,338.5 C 304.167,340.167 304.833,341.833 305.5,343.5C 306.223,347.669 307.556,351.669 309.5,355.5C 308.807,356.518 308.141,357.518 307.5,358.5C 305.973,358.427 304.973,359.094 304.5,360.5C 303.5,360.833 302.833,361.5 302.5,362.5C 300.973,362.427 299.973,363.094 299.5,364.5C 298.29,364.932 297.29,365.599 296.5,366.5C 295.391,366.443 294.391,366.11 293.5,365.5C 289.743,361.287 285.076,358.62 279.5,357.5C 279.5,357.167 279.5,356.833 279.5,356.5C 289.724,353.396 297.724,347.396 303.5,338.5 Z M 20.5,351.5 C 50.5,351.5 80.5,351.5 110.5,351.5C 110.5,364.833 110.5,378.167 110.5,391.5C 110.5,393.833 110.5,396.167 110.5,398.5C 80.5,398.5 50.5,398.5 20.5,398.5C 20.5,382.833 20.5,367.167 20.5,351.5 Z M 334.5,351.5 C 364.167,351.5 393.833,351.5 423.5,351.5C 423.5,354.833 423.5,358.167 423.5,361.5C 423.5,373.833 423.5,386.167 423.5,398.5C 393.5,398.5 363.5,398.5 333.5,398.5C 333.17,382.658 333.504,366.991 334.5,351.5 Z M 242.5,354.5 C 243.708,355.234 245.041,355.567 246.5,355.5C 249.203,356.963 252.203,357.796 255.5,358C 261.157,358.499 266.824,358.666 272.5,358.5C 272.5,358.833 272.5,359.167 272.5,359.5C 270.738,360.262 269.738,361.596 269.5,363.5C 267.754,366.872 266.088,370.372 264.5,374C 258.131,374.162 251.798,373.662 245.5,372.5C 246.051,366.2 245.051,360.2 242.5,354.5 Z M 101.5,410.5 C 101.833,410.5 102.167,410.5 102.5,410.5C 131.833,410.5 161.167,410.5 190.5,410.5C 190.5,424.833 190.5,439.167 190.5,453.5C 190.5,454.833 190.5,456.167 190.5,457.5C 160.5,457.5 130.5,457.5 100.5,457.5C 100.5,447.5 100.5,437.5 100.5,427.5C 100.178,421.642 100.511,415.975 101.5,410.5 Z M 267.5,410.5 C 296.833,410.5 326.167,410.5 355.5,410.5C 355.5,426.167 355.5,441.833 355.5,457.5C 325.329,457.831 295.329,457.498 265.5,456.5C 264.849,440.797 265.516,425.464 267.5,410.5 Z M 41.5,469.5 C 70.1667,469.5 98.8333,469.5 127.5,469.5C 127.5,484.167 127.5,498.833 127.5,513.5C 127.5,514.5 127.5,515.5 127.5,516.5C 97.5,516.5 67.5,516.5 37.5,516.5C 37.5,500.833 37.5,485.167 37.5,469.5C 38.8333,469.5 40.1667,469.5 41.5,469.5 Z M 201.5,469.5 C 231.833,469.5 262.167,469.5 292.5,469.5C 292.5,485.167 292.5,500.833 292.5,516.5C 262.167,516.5 231.833,516.5 201.5,516.5C 201.5,500.833 201.5,485.167 201.5,469.5 Z M 441.5,515.5 C 411.671,516.498 381.671,516.831 351.5,516.5C 351.5,515.167 351.5,513.833 351.5,512.5C 351.5,498.167 351.5,483.833 351.5,469.5C 381.5,469.5 411.5,469.5 441.5,469.5C 441.5,484.833 441.5,500.167 441.5,515.5 Z"/></g>
<g><path style="opacity:0.161" fill="#868686" d="M 227.5,21.5 C 226.5,23.1667 225.167,24.5 223.5,25.5C 223.833,23.1667 225.167,21.8333 227.5,21.5 Z"/></g>
<g><path style="opacity:0.067" fill="#696969" d="M 245.5,24.5 C 246.209,23.596 247.209,23.2627 248.5,23.5C 248.821,28.6946 248.487,33.6946 247.5,38.5C 248.103,33.3814 247.436,28.7147 245.5,24.5 Z"/></g>
<g><path style="opacity:0.267" fill="#848484" d="M 217.5,30.5 C 217.262,32.4044 216.262,33.7377 214.5,34.5C 214.738,32.5956 215.738,31.2623 217.5,30.5 Z"/></g>
<g><path style="opacity:0.188" fill="#8d8d8d" d="M 213.5,35.5 C 213.573,37.0269 212.906,38.0269 211.5,38.5C 211.427,36.9731 212.094,35.9731 213.5,35.5 Z"/></g>
<g><path style="opacity:0.11" fill="#9e9e9e" d="M 254.5,51.5 C 257.018,52.2638 259.351,53.2638 261.5,54.5C 258.509,54.8337 256.176,53.8337 254.5,51.5 Z"/></g>
<g><path style="opacity:0.067" fill="#a9a9a9" d="M 322.5,49.5 C 323.674,50.5137 324.34,51.847 324.5,53.5C 322.896,52.713 322.229,51.3797 322.5,49.5 Z"/></g>
<g><path style="opacity:0.161" fill="#8a8a8a" d="M 217.5,51.5 C 217.34,53.153 216.674,54.4863 215.5,55.5C 215.229,53.6203 215.896,52.287 217.5,51.5 Z"/></g>
<g><path style="opacity:0.251" fill="#8a8a8a" d="M 335.5,74.5 C 336.906,74.9731 337.573,75.9731 337.5,77.5C 336.094,77.0269 335.427,76.0269 335.5,74.5 Z"/></g>
<g><path style="opacity:0.306" fill="#9b9b9b" d="M 316.5,73.5 C 317.473,75.9479 317.806,78.6146 317.5,81.5C 320.713,81.19 323.713,81.5233 326.5,82.5C 323.167,82.5 319.833,82.5 316.5,82.5C 316.5,79.5 316.5,76.5 316.5,73.5 Z"/></g>
<g><path style="opacity:0.329" fill="#282828" d="M 200.5,85.5 C 242.761,86.4941 285.094,86.8275 327.5,86.5C 306.503,87.1666 285.336,87.5 264,87.5C 242.489,87.4997 221.323,86.833 200.5,85.5 Z"/></g>
<g><path style="opacity:0.376" fill="#858585" d="M 193.5,94.5 C 195.027,94.427 196.027,95.0937 196.5,96.5C 194.973,96.573 193.973,95.9063 193.5,94.5 Z"/></g>
<g><path style="opacity:0.043" fill="#b5b5b5" d="M 196.5,97.5 C 198.402,100.337 199.069,103.671 198.5,107.5C 197.763,104.275 197.097,100.941 196.5,97.5 Z"/></g>
<g><path style="opacity:0.106" fill="#a9a9a9" d="M 219.5,108.5 C 220.738,110.214 221.405,112.214 221.5,114.5C 219.926,112.898 219.259,110.898 219.5,108.5 Z"/></g>
<g><path style="opacity:0.267" fill="#828282" d="M 199.5,111.5 C 201.5,111.5 202.5,112.5 202.5,114.5C 201.167,113.833 200.167,112.833 199.5,111.5 Z"/></g>
<g><path style="opacity:0.098" fill="#b3b3b3" d="M 202.5,114.5 C 204.027,114.427 205.027,115.094 205.5,116.5C 203.973,116.573 202.973,115.906 202.5,114.5 Z"/></g>
<g><path style="opacity:0.016" fill="#c5c5c5" d="M 325.5,114.5 C 325.027,115.906 324.027,116.573 322.5,116.5C 322.973,115.094 323.973,114.427 325.5,114.5 Z"/></g>
<g><path style="opacity:0.196" fill="#989898" d="M 303.5,122.5 C 303.573,124.027 302.906,125.027 301.5,125.5C 301.427,123.973 302.094,122.973 303.5,122.5 Z"/></g>
<g><path style="opacity:0.192" fill="#858585" d="M 295.5,133.5 C 294.833,136.167 293.167,137.833 290.5,138.5C 291.833,136.5 293.5,134.833 295.5,133.5 Z"/></g>
<g><path style="opacity:0.004" fill="#c0c0c0" d="M 224.5,141.5 C 226.5,142.833 228.167,144.5 229.5,146.5C 226.833,145.833 225.167,144.167 224.5,141.5 Z"/></g>
<g><path style="opacity:0.049" fill="#dddddd" d="M 282.5,156.5 C 283.209,155.596 284.209,155.263 285.5,155.5C 285.802,158.059 285.468,160.393 284.5,162.5C 284.975,159.918 284.308,157.918 282.5,156.5 Z"/></g>
<g><path style="opacity:0.157" fill="#979797" d="M 244.5,163.5 C 245.906,163.973 246.573,164.973 246.5,166.5C 245.094,166.027 244.427,165.027 244.5,163.5 Z"/></g>
<g><path style="opacity:0.275" fill="#919191" d="M 248.5,168.5 C 250.587,169.585 251.92,171.251 252.5,173.5C 250.413,172.415 249.08,170.749 248.5,168.5 Z"/></g>
<g><path style="opacity:0.318" fill="#656565" d="M 320.5,172.5 C 323.157,172.935 325.491,173.935 327.5,175.5C 324.654,175.448 322.32,174.448 320.5,172.5 Z"/></g>
<g><path style="opacity:0.051" fill="#c5c5c5" d="M 187.5,179.5 C 186.713,181.104 185.38,181.771 183.5,181.5C 184.514,180.326 185.847,179.66 187.5,179.5 Z"/></g>
<g><path style="opacity:0.145" fill="#979797" d="M 218.5,180.5 C 219.11,181.391 219.443,182.391 219.5,183.5C 217.618,182.779 217.285,181.779 218.5,180.5 Z"/></g>
<g><path style="opacity:0.337" fill="#777777" d="M 258.5,180.5 C 260.587,181.585 261.92,183.251 262.5,185.5C 260.413,184.415 259.08,182.749 258.5,180.5 Z"/></g>
<g><path style="opacity:0.243" fill="#8f8f8f" d="M 221.5,185.5 C 222.5,185.833 223.167,186.5 223.5,187.5C 223.565,187.938 223.399,188.272 223,188.5C 221.961,187.756 221.461,186.756 221.5,185.5 Z"/></g>
<g><path style="opacity:0.251" fill="#939393" d="M 293.5,195.5 C 292.965,197.446 291.632,198.446 289.5,198.5C 290.436,197.026 291.77,196.026 293.5,195.5 Z"/></g>
<g><path style="opacity:0.059" fill="#9d9d9d" d="M 289.5,198.5 C 288.22,199.931 286.553,200.598 284.5,200.5C 285.78,199.069 287.447,198.402 289.5,198.5 Z"/></g>
<g><path style="opacity:0.129" fill="#8f8f8f" d="M 359.5,199.5 C 362.089,199.461 364.089,200.461 365.5,202.5C 363.181,202.008 361.181,201.008 359.5,199.5 Z"/></g>
<g><path style="opacity:0.035" fill="#bebebe" d="M 267.5,201.5 C 267.167,202.5 266.5,203.167 265.5,203.5C 265.5,202.167 266.167,201.5 267.5,201.5 Z"/></g>
<g><path style="opacity:0.204" fill="#b4b4b4" d="M 224.5,203.5 C 226.027,203.427 227.027,204.094 227.5,205.5C 225.973,205.573 224.973,204.906 224.5,203.5 Z"/></g>
<g><path style="opacity:0.378" fill="#595959" d="M 248.5,202.5 C 251.167,202.833 253.833,203.167 256.5,203.5C 253.707,204.746 251.04,204.413 248.5,202.5 Z"/></g>
<g><path style="opacity:0.012" fill="#dcdcdc" d="M 229.5,206.5 C 231.027,206.427 232.027,207.094 232.5,208.5C 230.973,208.573 229.973,207.906 229.5,206.5 Z"/></g>
<g><path style="opacity:0.257" fill="#686868" d="M 283.5,212.5 C 281.162,214.04 278.495,214.706 275.5,214.5C 277.905,213.232 280.572,212.565 283.5,212.5 Z"/></g>
<g><path style="opacity:0.157" fill="#a5a5a5" d="M 93.5,225.5 C 93.0269,226.906 92.0269,227.573 90.5,227.5C 90.9731,226.094 91.9731,225.427 93.5,225.5 Z"/></g>
<g><path style="opacity:0.204" fill="#898989" d="M 169.5,199.5 C 169.56,198.957 169.893,198.624 170.5,198.5C 171.828,220.33 171.828,241.996 170.5,263.5C 170.831,241.993 170.497,220.66 169.5,199.5 Z"/></g>
<g><path style="opacity:0.161" fill="#b6b6b6" d="M 117.5,242.5 C 118.906,242.973 119.573,243.973 119.5,245.5C 118.094,245.027 117.427,244.027 117.5,242.5 Z"/></g>
<g><path style="opacity:0.045" fill="#e5e5e5" d="M 135.5,213.5 C 135.667,229.837 135.5,246.17 135,262.5C 134.283,261.956 133.783,261.289 133.5,260.5C 134.167,244.833 134.833,229.167 135.5,213.5 Z"/></g>
<g><path style="opacity:0.086" fill="#9e9e9e" d="M 231.5,242.5 C 229.819,244.008 227.819,245.008 225.5,245.5C 226.911,243.461 228.911,242.461 231.5,242.5 Z"/></g>
<g><path style="opacity:0.004" fill="#bebebe" d="M 104.5,245.5 C 106.587,246.585 107.92,248.251 108.5,250.5C 106.413,249.415 105.08,247.749 104.5,245.5 Z"/></g>
<g><path style="opacity:0.251" fill="#b5b5b5" d="M 126.5,252.5 C 129.243,254.239 131.243,256.573 132.5,259.5C 129.757,257.761 127.757,255.427 126.5,252.5 Z"/></g>
<g><path style="opacity:0.071" fill="#707070" d="M 380.5,211.5 C 381.833,224.65 382.499,238.15 382.5,252C 382.5,265.671 382.167,279.171 381.5,292.5C 381.824,265.426 381.491,238.426 380.5,211.5 Z"/></g>
<g><path style="opacity:0.204" fill="#a6a6a6" d="M 294.5,256.5 C 295.391,257.11 296.391,257.443 297.5,257.5C 296.053,258.885 295.053,258.552 294.5,256.5 Z"/></g>
<g><path style="opacity:0.184" fill="#858585" d="M 238.5,258.5 C 240.027,258.427 241.027,259.094 241.5,260.5C 239.973,260.573 238.973,259.906 238.5,258.5 Z"/></g>
<g><path style="opacity:0.259" fill="#828282" d="M 319.5,258.5 C 320.833,259.167 321.833,260.167 322.5,261.5C 320.5,261.5 319.5,260.5 319.5,258.5 Z"/></g>
<g><path style="opacity:0.114" fill="#9b9b9b" d="M 241.5,260.5 C 243.819,260.992 245.819,261.992 247.5,263.5C 244.911,263.539 242.911,262.539 241.5,260.5 Z"/></g>
<g><path style="opacity:0.004" fill="#c6c6c6" d="M 74.5,261.5 C 76.2624,262.262 77.2624,263.596 77.5,265.5C 75.7376,264.738 74.7376,263.404 74.5,261.5 Z"/></g>
<g><path style="opacity:0.945" fill="#151515" d="M 250.5,263.5 C 251.209,262.596 252.209,262.263 253.5,262.5C 254.167,263.833 254.833,263.833 255.5,262.5C 266.338,261.406 276.671,263.073 286.5,267.5C 286.842,268.338 287.508,268.672 288.5,268.5C 289.167,269.833 289.833,269.833 290.5,268.5C 293.059,268.198 295.393,268.532 297.5,269.5C 295.473,269.338 293.473,269.505 291.5,270C 292.044,270.717 292.711,271.217 293.5,271.5C 293.5,273.5 294.5,274.5 296.5,274.5C 303.508,280.699 308.342,288.366 311,297.5C 311.198,295.618 311.698,293.952 312.5,292.5C 312.5,294.833 312.5,297.167 312.5,299.5C 311.167,299.833 311.167,300.167 312.5,300.5C 312.5,300.833 312.5,301.167 312.5,301.5C 313.433,311.865 312.1,321.865 308.5,331.5C 307.833,331.5 307.5,331.833 307.5,332.5C 305.684,334.118 304.351,336.118 303.5,338.5C 297.724,347.396 289.724,353.396 279.5,356.5C 277.784,356.629 276.117,356.962 274.5,357.5C 273.508,357.328 272.842,357.662 272.5,358.5C 266.824,358.666 261.157,358.499 255.5,358C 252.203,357.796 249.203,356.963 246.5,355.5C 244.819,353.992 242.819,352.992 240.5,352.5C 239.71,351.599 238.71,350.932 237.5,350.5C 227.564,344.986 221.231,336.653 218.5,325.5C 218.324,322.273 217.657,319.273 216.5,316.5C 215.355,312.689 215.188,308.689 216,304.5C 217.201,299.067 218.701,293.733 220.5,288.5C 221.167,287.5 221.833,286.5 222.5,285.5C 223.5,285.167 224.167,284.5 224.5,283.5C 225.075,281.589 226.075,279.922 227.5,278.5C 229.749,277.92 231.415,276.587 232.5,274.5C 234.004,272.164 236.004,270.331 238.5,269C 243.19,267.132 247.19,265.299 250.5,263.5 Z M 281.5,342.5 C 280.29,342.932 279.29,343.599 278.5,344.5C 263.875,349.374 250.542,347.041 238.5,337.5C 238.262,335.596 237.262,334.262 235.5,333.5C 235.5,332.833 235.167,332.5 234.5,332.5C 234.573,330.973 233.906,329.973 232.5,329.5C 222.583,307.832 227.583,290.498 247.5,277.5C 249.553,277.598 251.22,276.931 252.5,275.5C 272.543,271.106 287.71,277.772 298,295.5C 302.841,309.684 300.841,322.684 292,334.5C 289.069,338.034 285.569,340.701 281.5,342.5 Z M 249.5,317.5 C 248.756,313.881 248.423,310.215 248.5,306.5C 254.745,294.365 263.745,291.865 275.5,299C 282.944,309.005 281.61,317.672 271.5,325C 262.033,328.963 254.7,326.463 249.5,317.5 Z"/></g>
<g><path style="opacity:0.251" fill="#a0a0a0" d="M 77.5,265.5 C 78.8333,265.833 80.1667,266.167 81.5,266.5C 79.8716,267.853 78.5383,267.519 77.5,265.5 Z"/></g>
<g><path style="opacity:0.18" fill="#969696" d="M 220.5,263.5 C 219.833,264.5 219.167,265.5 218.5,266.5C 217.282,264.668 217.949,263.668 220.5,263.5 Z"/></g>
<g><path style="opacity:0.016" fill="#dddddd" d="M 286.5,266.5 C 287.5,266.833 288.167,267.5 288.5,268.5C 287.508,268.672 286.842,268.338 286.5,267.5C 286.5,267.167 286.5,266.833 286.5,266.5 Z"/></g>
<g><path style="opacity:0.255" fill="#737373" d="M 101.5,269.5 C 100.5,272.5 98.5,274.5 95.5,275.5C 97.1667,273.167 99.1667,271.167 101.5,269.5 Z"/></g>
<g><path style="opacity:0.027" fill="#959595" d="M 293.5,271.5 C 294.833,272.167 295.833,273.167 296.5,274.5C 294.5,274.5 293.5,273.5 293.5,271.5 Z"/></g>
<g><path style="opacity:0.243" fill="#575757" d="M 115.5,272.5 C 114.352,275.087 112.685,276.087 110.5,275.5C 111.922,274.075 113.589,273.075 115.5,272.5 Z"/></g>
<g><path style="opacity:0.067" fill="#979797" d="M 252.5,275.5 C 251.22,276.931 249.553,277.598 247.5,277.5C 248.78,276.069 250.447,275.402 252.5,275.5 Z"/></g>
<g><path style="opacity:0.055" fill="#a6a6a6" d="M 317.5,274.5 C 318.906,274.973 319.573,275.973 319.5,277.5C 318.094,277.027 317.427,276.027 317.5,274.5 Z"/></g>
<g><path style="opacity:0.188" fill="#7f7f7f" d="M 232.5,274.5 C 231.415,276.587 229.749,277.92 227.5,278.5C 228.585,276.413 230.251,275.08 232.5,274.5 Z"/></g>
<g><path style="opacity:0.041" fill="#e4e4e4" d="M 222.5,275.5 C 223.167,278.167 223.833,280.833 224.5,283.5C 224.167,284.5 223.5,285.167 222.5,285.5C 222.5,282.167 222.5,278.833 222.5,275.5 Z"/></g>
<g><path style="opacity:0.944" fill="#141414" d="M 279.5,287.5 C 280.833,289.5 282.5,291.167 284.5,292.5C 286.822,293.802 288.155,295.802 288.5,298.5C 288.935,301.157 289.935,303.491 291.5,305.5C 291.949,311.359 291.283,317.025 289.5,322.5C 287.952,322.821 287.285,323.821 287.5,325.5C 276.477,339.707 263.143,342.207 247.5,333C 235.813,321.887 233.647,309.054 241,294.5C 242.704,292.627 244.537,290.96 246.5,289.5C 248.404,289.262 249.738,288.262 250.5,286.5C 260.354,280.971 270.02,281.304 279.5,287.5 Z M 249.5,317.5 C 248.756,313.881 248.423,310.215 248.5,306.5C 254.745,294.365 263.745,291.865 275.5,299C 282.944,309.005 281.61,317.672 271.5,325C 262.033,328.963 254.7,326.463 249.5,317.5 Z"/></g>
<g><path style="opacity:0.004" fill="#b6b6b6" d="M 279.5,287.5 C 282.167,288.167 283.833,289.833 284.5,292.5C 282.5,291.167 280.833,289.5 279.5,287.5 Z"/></g>
<g><path style="opacity:0.373" fill="#818181" d="M 250.5,286.5 C 249.738,288.262 248.404,289.262 246.5,289.5C 247.262,287.738 248.596,286.738 250.5,286.5 Z"/></g>
<g><path style="opacity:0.008" fill="#787878" d="M 325.5,291.5 C 332.5,292.833 339.5,292.833 346.5,291.5C 347.043,291.56 347.376,291.893 347.5,292.5C 339.833,293.833 332.167,293.833 324.5,292.5C 324.624,291.893 324.957,291.56 325.5,291.5 Z"/></g>
<g><path style="opacity:0.161" fill="#878787" d="M 71.5,298.5 C 71.0269,299.906 70.0269,300.573 68.5,300.5C 68.9731,299.094 69.9731,298.427 71.5,298.5 Z"/></g>
<g><path style="opacity:0.169" fill="#808080" d="M 288.5,298.5 C 290.448,300.32 291.448,302.654 291.5,305.5C 289.935,303.491 288.935,301.157 288.5,298.5 Z"/></g>
<g><path style="opacity:0.369" fill="#8d8d8d" d="M 126.5,301.5 C 128.833,303.167 130.833,305.167 132.5,307.5C 129.5,306.5 127.5,304.5 126.5,301.5 Z"/></g>
<g><path style="opacity:0.192" fill="#959595" d="M 313.5,302.5 C 315.027,302.427 316.027,303.094 316.5,304.5C 314.973,304.573 313.973,303.906 313.5,302.5 Z"/></g>
<g><path style="opacity:0.192" fill="#585858" d="M 67.5,301.5 C 66.4154,303.587 64.7488,304.92 62.5,305.5C 63.5846,303.413 65.2512,302.08 67.5,301.5 Z"/></g>
<g><path style="opacity:0.246" fill="#666666" d="M 393.5,293.5 C 393.5,297.167 393.5,300.833 393.5,304.5C 375.136,303.847 357.136,304.513 339.5,306.5C 338.596,305.791 338.263,304.791 338.5,303.5C 356.5,303.5 374.5,303.5 392.5,303.5C 392.187,299.958 392.521,296.625 393.5,293.5 Z"/></g>
<g><path style="opacity:0.145" fill="#919191" d="M 316.5,304.5 C 318.027,304.427 319.027,305.094 319.5,306.5C 317.973,306.573 316.973,305.906 316.5,304.5 Z"/></g>
<g><path style="opacity:0.092" fill="#979797" d="M 248.5,306.5 C 248.423,310.215 248.756,313.881 249.5,317.5C 248.003,315.71 247.336,313.544 247.5,311C 247.508,309.293 247.842,307.793 248.5,306.5 Z"/></g>
<g><path style="opacity:0.231" fill="#959595" d="M 80.5,309.5 C 82.4044,309.738 83.7377,310.738 84.5,312.5C 82.5956,312.262 81.2623,311.262 80.5,309.5 Z"/></g>
<g><path style="opacity:0.318" fill="#828282" d="M 138.5,314.5 C 141.573,316.569 143.906,319.236 145.5,322.5C 142.427,320.431 140.094,317.764 138.5,314.5 Z"/></g>
<g><path style="opacity:0.129" fill="#adadad" d="M 89.5,319.5 C 91.8333,319.833 93.1667,321.167 93.5,323.5C 91.8333,322.5 90.5,321.167 89.5,319.5 Z"/></g>
<g><path style="opacity:0.133" fill="#7f7f7f" d="M 289.5,322.5 C 289.068,323.71 288.401,324.71 287.5,325.5C 287.285,323.821 287.952,322.821 289.5,322.5 Z"/></g>
<g><path style="opacity:0.071" fill="#818181" d="M 216.5,316.5 C 217.657,319.273 218.324,322.273 218.5,325.5C 217.833,326.167 217.167,326.833 216.5,327.5C 216.702,325.05 216.369,322.717 215.5,320.5C 216.434,319.432 216.768,318.099 216.5,316.5 Z"/></g>
<g><path style="opacity:0.169" fill="#c3c3c3" d="M 113.5,327.5 C 115.587,328.585 116.92,330.251 117.5,332.5C 115.413,331.415 114.08,329.749 113.5,327.5 Z"/></g>
<g><path style="opacity:0.231" fill="#969696" d="M 232.5,329.5 C 233.906,329.973 234.573,330.973 234.5,332.5C 233.094,332.027 232.427,331.027 232.5,329.5 Z"/></g>
<g><path style="opacity:0.157" fill="#8f8f8f" d="M 203.5,328.5 C 202.243,331.427 200.243,333.761 197.5,335.5C 198.757,332.573 200.757,330.239 203.5,328.5 Z"/></g>
<g><path style="opacity:0.212" fill="#9d9d9d" d="M 235.5,333.5 C 237.262,334.262 238.262,335.596 238.5,337.5C 236.738,336.738 235.738,335.404 235.5,333.5 Z"/></g>
<g><path style="opacity:0.063" fill="#323232" d="M 107.5,338.5 C 108.043,338.56 108.376,338.893 108.5,339.5C 75.8401,340.5 43.1735,340.833 10.5,340.5C 10.7845,342.415 10.4511,344.081 9.5,345.5C 9.5,343.5 9.5,341.5 9.5,339.5C 42.3376,339.832 75.0043,339.498 107.5,338.5 Z"/></g>
<g><path style="opacity:0.085" fill="#9d9d9d" d="M 307.5,332.5 C 307.833,332.5 308.167,332.5 308.5,332.5C 306.123,335.726 305.123,339.393 305.5,343.5C 304.833,341.833 304.167,340.167 303.5,338.5C 304.351,336.118 305.684,334.118 307.5,332.5 Z"/></g>
<g><path style="opacity:0.063" fill="#323232" d="M 332.5,338.5 C 366.833,339.167 401.167,339.833 435.5,340.5C 400.494,340.833 365.494,340.5 330.5,339.5C 330.957,338.702 331.624,338.369 332.5,338.5 Z"/></g>
<g><path style="opacity:0.22" fill="#8b8b8b" d="M 281.5,342.5 C 281.179,344.048 280.179,344.715 278.5,344.5C 279.29,343.599 280.29,342.932 281.5,342.5 Z"/></g>
<g><path style="opacity:0.027" fill="#979797" d="M 197.5,347.5 C 199.048,347.821 199.715,348.821 199.5,350.5C 198.599,349.71 197.932,348.71 197.5,347.5 Z"/></g>
<g><path style="opacity:0.157" fill="#898989" d="M 20.5,351.5 C 50.6621,350.502 80.9954,350.169 111.5,350.5C 111.829,364.344 111.496,378.01 110.5,391.5C 110.5,378.167 110.5,364.833 110.5,351.5C 80.5,351.5 50.5,351.5 20.5,351.5 Z"/></g>
<g><path style="opacity:0.243" fill="#848484" d="M 155.5,350.5 C 157.5,350.5 158.5,351.5 158.5,353.5C 157.167,352.833 156.167,351.833 155.5,350.5 Z"/></g>
<g><path style="opacity:0.157" fill="#8c8c8c" d="M 334.5,351.5 C 364.329,350.502 394.329,350.169 424.5,350.5C 424.815,354.371 424.482,358.038 423.5,361.5C 423.5,358.167 423.5,354.833 423.5,351.5C 393.833,351.5 364.167,351.5 334.5,351.5 Z"/></g>
<g><path style="opacity:0.34" fill="#656565" d="M 237.5,350.5 C 238.71,350.932 239.71,351.599 240.5,352.5C 236.833,352.5 233.167,352.5 229.5,352.5C 232.167,351.833 234.833,351.167 237.5,350.5 Z"/></g>
<g><path style="opacity:0.075" fill="#afafaf" d="M 240.5,352.5 C 242.819,352.992 244.819,353.992 246.5,355.5C 245.041,355.567 243.708,355.234 242.5,354.5C 241.167,354.5 240.5,353.833 240.5,352.5 Z"/></g>
<g><path style="opacity:0.004" fill="#c9c9c9" d="M 125.5,357.5 C 124.391,357.443 123.391,357.11 122.5,356.5C 123.322,354.45 124.322,354.783 125.5,357.5 Z"/></g>
<g><path style="opacity:0.055" fill="#dedede" d="M 279.5,356.5 C 279.5,356.833 279.5,357.167 279.5,357.5C 277.883,358.038 276.216,358.371 274.5,358.5C 274.5,358.167 274.5,357.833 274.5,357.5C 276.117,356.962 277.784,356.629 279.5,356.5 Z"/></g>
<g><path style="opacity:0.161" fill="#979797" d="M 307.5,358.5 C 307.027,359.906 306.027,360.573 304.5,360.5C 304.973,359.094 305.973,358.427 307.5,358.5 Z"/></g>
<g><path style="opacity:0.169" fill="#aeaeae" d="M 272.5,359.5 C 272.262,361.404 271.262,362.738 269.5,363.5C 269.738,361.596 270.738,360.262 272.5,359.5 Z"/></g>
<g><path style="opacity:0.224" fill="#9e9e9e" d="M 145.5,362.5 C 147.262,363.262 148.262,364.596 148.5,366.5C 146.738,365.738 145.738,364.404 145.5,362.5 Z"/></g>
<g><path style="opacity:0.255" fill="#878787" d="M 302.5,362.5 C 302.027,363.906 301.027,364.573 299.5,364.5C 299.973,363.094 300.973,362.427 302.5,362.5 Z"/></g>
<g><path style="opacity:0.294" fill="#898989" d="M 210.5,364.5 C 212.434,365.11 214.101,366.11 215.5,367.5C 213.067,367.727 211.401,366.727 210.5,364.5 Z"/></g>
<g><path style="opacity:0.043" fill="#7f7f7f" d="M 167.5,363.5 C 169.5,363.5 170.5,364.5 170.5,366.5C 169.167,365.833 168.167,364.833 167.5,363.5 Z"/></g>
<g><path style="opacity:0.169" fill="#959595" d="M 293.5,365.5 C 294.391,366.11 295.391,366.443 296.5,366.5C 295.053,367.885 294.053,367.552 293.5,365.5 Z"/></g>
<g><path style="opacity:0.004" fill="#dfdfdf" d="M 312.5,369.5 C 312.027,370.906 311.027,371.573 309.5,371.5C 309.973,370.094 310.973,369.427 312.5,369.5 Z"/></g>
<g><path style="opacity:0.275" fill="#9b9b9b" d="M 155.5,373.5 C 158.573,375.569 160.906,378.236 162.5,381.5C 159.427,379.431 157.094,376.764 155.5,373.5 Z"/></g>
<g><path style="opacity:0.18" fill="#898989" d="M 170.5,378.5 C 169.375,380.129 168.041,381.629 166.5,383C 165.563,383.692 164.897,383.525 164.5,382.5C 166.246,380.748 168.246,379.415 170.5,378.5 Z"/></g>
<g><path style="opacity:0.341" fill="#3e3e3e" d="M 322.5,397.5 C 323.043,397.56 323.376,397.893 323.5,398.5C 300.176,399.5 276.843,399.833 253.5,399.5C 276.5,398.833 299.5,398.167 322.5,397.5 Z"/></g>
<g><path style="opacity:0.008" fill="#f0f0f0" d="M 83.5,410.5 C 85.2646,409.539 87.2646,409.205 89.5,409.5C 89.7845,411.415 89.4511,413.081 88.5,414.5C 88.5,413.167 88.5,411.833 88.5,410.5C 86.8333,410.5 85.1667,410.5 83.5,410.5 Z"/></g>
<g><path style="opacity:0.082" fill="#b1b1b1" d="M 267.5,410.5 C 265.516,425.464 264.849,440.797 265.5,456.5C 264.504,441.009 264.17,425.342 264.5,409.5C 265.791,409.263 266.791,409.596 267.5,410.5 Z"/></g>
<g><path style="opacity:0.153" fill="#a7a7a7" d="M 101.5,410.5 C 100.511,415.975 100.178,421.642 100.5,427.5C 99.1834,421.654 99.1834,415.654 100.5,409.5C 101.107,409.624 101.44,409.957 101.5,410.5 Z"/></g>
<g><path style="opacity:0.365" fill="#828282" d="M 102.5,410.5 C 131.995,409.502 161.662,409.169 191.5,409.5C 191.829,424.343 191.496,439.01 190.5,453.5C 190.5,439.167 190.5,424.833 190.5,410.5C 161.167,410.5 131.833,410.5 102.5,410.5 Z"/></g>
<g><path style="opacity:0.192" fill="#494949" d="M 88.5,456.5 C 89.0431,456.56 89.3764,456.893 89.5,457.5C 68.6706,458.828 48.0039,458.828 27.5,457.5C 48.0069,457.83 68.3402,457.497 88.5,456.5 Z"/></g>
<g><path style="opacity:0.098" fill="#757575" d="M 41.5,469.5 C 70.3285,468.502 99.3285,468.169 128.5,468.5C 128.829,483.676 128.496,498.676 127.5,513.5C 127.5,498.833 127.5,484.167 127.5,469.5C 98.8333,469.5 70.1667,469.5 41.5,469.5 Z"/></g>
<g><path style="opacity:0.365" fill="#3a3a3a" d="M 189.5,468.5 C 189.56,467.957 189.893,467.624 190.5,467.5C 191.828,486.996 191.828,506.329 190.5,525.5C 190.83,506.326 190.497,487.326 189.5,468.5 Z"/></g>
<g><path style="opacity:0.263" fill="#424242" d="M 338.5,468.5 C 338.56,467.957 338.893,467.624 339.5,467.5C 340.823,478.326 340.823,488.993 339.5,499.5C 339.828,488.986 339.494,478.653 338.5,468.5 Z"/></g>
<g><path style="opacity:0.433" fill="#525252" d="M 351.5,512.5 C 351.5,513.833 351.5,515.167 351.5,516.5C 381.671,516.831 411.671,516.498 441.5,515.5C 442.043,515.56 442.376,515.893 442.5,516.5C 411.841,517.5 381.174,517.833 350.5,517.5C 350.216,515.585 350.549,513.919 351.5,512.5 Z"/></g>
</svg>
