<?xml version="1.0" encoding="UTF-8"?>
<!DOCTYPE svg PUBLIC "-//W3C//DTD SVG 1.1//EN" "http://www.w3.org/Graphics/SVG/1.1/DTD/svg11.dtd">
<svg xmlns="http://www.w3.org/2000/svg" version="1.1" width="415px" height="501px" style="shape-rendering:geometricPrecision; text-rendering:geometricPrecision; image-rendering:optimizeQuality; fill-rule:evenodd; clip-rule:evenodd" xmlns:xlink="http://www.w3.org/1999/xlink">
<g><path style="opacity:0.927" fill="#000000" d="M 171.5,10.5 C 213.59,6.79772 246.09,22.4644 269,57.5C 278.846,74.5507 283.18,92.8841 282,112.5C 279.454,115.037 277.788,118.037 277,121.5C 275.497,134.854 273.831,148.187 272,161.5C 270.738,168.785 268.572,175.785 265.5,182.5C 269.909,185.036 274.576,187.036 279.5,188.5C 284.084,185.422 288.251,181.756 292,177.5C 284.631,145.742 295.464,122.575 324.5,108C 340.291,102.556 355.624,103.556 370.5,111C 373.654,113.775 374.154,116.942 372,120.5C 361.333,131.167 350.667,141.833 340,152.5C 339.156,160.99 342.99,164.823 351.5,164C 361.081,153.416 371.081,143.083 381.5,133C 388.848,128.916 393.681,131.082 396,139.5C 403.435,163.263 398.268,183.763 380.5,201C 364.002,213.416 345.669,217.083 325.5,212C 322.655,215.344 319.655,218.511 316.5,221.5C 337.286,244.081 349.119,270.748 352,301.5C 352.667,335.167 352.667,368.833 352,402.5C 350.053,410.114 345.22,414.614 337.5,416C 310.5,416.333 283.5,416.667 256.5,417C 261.396,419.061 264.729,422.561 266.5,427.5C 263.087,437.489 258.753,446.989 253.5,456C 248.762,456.112 244.096,456.278 239.5,456.5C 236.529,459.808 233.529,463.141 230.5,466.5C 233.191,472.069 232.524,476.902 228.5,481C 220.199,484.766 211.699,487.933 203,490.5C 201.033,490.458 199.199,489.958 197.5,489C 195.833,486.667 194.167,484.333 192.5,482C 187.5,481.333 182.5,481.333 177.5,482C 175.743,484.846 173.743,487.512 171.5,490C 170.333,490.167 169.167,490.333 168,490.5C 158.554,487.795 149.387,484.295 140.5,480C 138.972,478.352 138.305,476.352 138.5,474C 139.073,470.824 139.24,467.657 139,464.5C 136.167,461.667 133.333,458.833 130.5,456C 125.856,456.291 121.189,456.291 116.5,456C 111.234,447.037 107.234,437.537 104.5,427.5C 104.667,426.167 104.833,424.833 105,423.5C 107.743,421.212 110.577,419.045 113.5,417C 86.5,416.667 59.5,416.333 32.5,416C 24.3333,414.5 19.5,409.667 18,401.5C 17.3333,368.167 17.3333,334.833 18,301.5C 22.3912,258.693 42.5578,225.693 78.5,202.5C 78.7751,198.307 80.4417,194.807 83.5,192C 90.6604,189.116 97.6604,185.95 104.5,182.5C 101.967,177.067 100.133,171.4 99,165.5C 96.8362,150.19 94.8362,134.857 93,119.5C 91.3333,117.167 89.6667,114.833 88,112.5C 87.5732,67.5014 107.74,35.6681 148.5,17C 156.163,14.3384 163.829,12.1717 171.5,10.5 Z M 184.5,22.5 C 224.974,25.1507 252.141,45.484 266,83.5C 267.677,89.4129 268.844,95.4129 269.5,101.5C 213.167,101.5 156.833,101.5 100.5,101.5C 105.211,63.2844 125.877,38.1177 162.5,26C 169.912,24.3933 177.245,23.2266 184.5,22.5 Z M 107.5,116.5 C 158.998,115.335 210.665,115.168 262.5,116C 255.179,125.32 247.179,133.986 238.5,142C 236.5,142.667 234.5,143.333 232.5,144C 200.833,144.667 169.167,144.667 137.5,144C 131.622,142.475 126.789,139.308 123,134.5C 118.342,128.013 113.176,122.013 107.5,116.5 Z M 336.5,117.5 C 341.844,117.334 347.177,117.501 352.5,118C 353.308,118.308 353.975,118.808 354.5,119.5C 345,129.167 335.5,138.833 326,148.5C 326.191,156.096 327.858,163.429 331,170.5C 338.153,175.218 345.986,177.718 354.5,178C 364.971,168.53 375.137,158.697 385,148.5C 388.711,179.292 375.211,196.958 344.5,201.5C 339.324,201.032 334.324,199.865 329.5,198C 326.833,197.333 324.167,197.333 321.5,198C 316.652,203.015 311.652,207.848 306.5,212.5C 301.697,209.529 297.03,206.362 292.5,203C 291.74,201.559 291.074,200.059 290.5,198.5C 295.851,192.983 301.018,187.316 306,181.5C 306.667,179.167 306.667,176.833 306,174.5C 299.595,155.619 303.762,139.453 318.5,126C 324.208,122.31 330.208,119.477 336.5,117.5 Z M 108.5,137.5 C 115.181,147.684 124.514,154.184 136.5,157C 168.833,157.667 201.167,157.667 233.5,157C 245.067,154.438 254.234,148.271 261,138.5C 261.1,180.378 241.266,207.545 201.5,220C 166.519,225.794 139.352,213.96 120,184.5C 112.42,169.772 108.587,154.105 108.5,137.5 Z M 110.5,194.5 C 112.562,196.41 114.062,198.743 115,201.5C 122.912,230.981 130.745,260.481 138.5,290C 136.127,301.019 129.793,304.352 119.5,300C 118.333,298.167 117.167,296.333 116,294.5C 108.011,264.209 100.177,233.875 92.5,203.5C 98.2478,199.959 104.248,196.959 110.5,194.5 Z M 258.5,194.5 C 264.731,197.115 271.064,199.449 277.5,201.5C 269.985,232.892 262.152,264.226 254,295.5C 248.107,303.806 241.44,304.472 234,297.5C 233.04,295.02 232.207,292.52 231.5,290C 239.559,260.598 247.393,231.098 255,201.5C 256.193,199.114 257.36,196.78 258.5,194.5 Z M 81.5,215.5 C 86.7067,233.817 91.7067,252.317 96.5,271C 87.6076,275.56 82.1076,282.726 80,292.5C 77.5791,329.489 75.4124,366.489 73.5,403.5C 60.1625,403.667 46.8292,403.5 33.5,403C 32.6667,402.167 31.8333,401.333 31,400.5C 30.3333,367.833 30.3333,335.167 31,302.5C 34.9693,265.878 51.8026,236.878 81.5,215.5 Z M 287.5,215.5 C 317.987,236.453 335.153,265.453 339,302.5C 339.667,335.167 339.667,367.833 339,400.5C 338.167,401.333 337.333,402.167 336.5,403C 323.171,403.5 309.837,403.667 296.5,403.5C 294.79,366.476 292.624,329.476 290,292.5C 288.891,288.281 287.225,284.281 285,280.5C 281.286,277.278 277.452,274.278 273.5,271.5C 278.797,252.978 283.464,234.311 287.5,215.5 Z M 133.5,218.5 C 167.833,239.833 202.167,239.833 236.5,218.5C 232.64,235.608 228.306,252.608 223.5,269.5C 197.842,270.5 172.175,270.833 146.5,270.5C 142.165,253.16 137.832,235.827 133.5,218.5 Z M 150.5,283.5 C 173.5,283.5 196.5,283.5 219.5,283.5C 217.37,301.598 225.204,312.265 243,315.5C 259.504,312.991 268.504,303.324 270,286.5C 270.333,286.167 270.667,285.833 271,285.5C 276.744,290.5 279.077,296.834 278,304.5C 280.124,337.488 281.958,370.488 283.5,403.5C 274.494,403.666 265.494,403.5 256.5,403C 259.333,400.833 262.167,398.667 265,396.5C 265.781,395.271 266.281,393.938 266.5,392.5C 263.28,383.725 259.78,375.059 256,366.5C 254.587,364.586 252.753,363.253 250.5,362.5C 247.202,363.551 243.868,364.051 240.5,364C 237.333,360.833 234.167,357.667 231,354.5C 230.901,351.26 231.401,348.094 232.5,345C 231.896,342.532 230.562,340.532 228.5,339C 220.057,335.362 211.557,331.862 203,328.5C 197.939,329.892 194.439,333.059 192.5,338C 187.467,338.829 182.467,338.662 177.5,337.5C 175.365,332.862 171.865,329.862 167,328.5C 158.443,331.862 149.943,335.362 141.5,339C 140.667,339.833 139.833,340.667 139,341.5C 138.637,345.866 138.637,350.199 139,354.5C 135.833,357.667 132.667,360.833 129.5,364C 126.309,364.031 123.143,363.531 120,362.5C 117.501,363.083 115.501,364.416 114,366.5C 110.402,375.127 106.902,383.793 103.5,392.5C 104.098,393.795 104.598,395.128 105,396.5C 107.833,398.667 110.667,400.833 113.5,403C 104.506,403.5 95.5062,403.666 86.5,403.5C 88.3759,367.153 90.5425,330.819 93,294.5C 93.8141,290.52 95.9808,287.52 99.5,285.5C 100.711,295.659 105.044,304.159 112.5,311C 123.581,317.347 134.081,316.513 144,308.5C 150.162,301.193 152.328,292.86 150.5,283.5 Z M 163.5,343.5 C 164.239,343.369 164.906,343.536 165.5,344C 167.126,346.628 169.126,348.961 171.5,351C 180.5,351.667 189.5,351.667 198.5,351C 200.874,348.961 202.874,346.628 204.5,344C 209.421,344.952 214.088,346.786 218.5,349.5C 217.082,353.57 217.249,357.57 219,361.5C 224.167,366.667 229.333,371.833 234.5,377C 238.045,377.717 241.545,377.55 245,376.5C 247.664,380.496 249.831,384.829 251.5,389.5C 248.946,391.708 246.446,394.041 244,396.5C 243.333,405.5 243.333,414.5 244,423.5C 246.827,425.494 249.327,427.828 251.5,430.5C 249.769,434.962 247.769,439.295 245.5,443.5C 241.799,441.778 238.132,441.611 234.5,443C 229,448.5 223.5,454 218,459.5C 217.24,463.225 217.407,466.892 218.5,470.5C 214.295,472.769 209.962,474.769 205.5,476.5C 203.292,473.946 200.959,471.446 198.5,469C 189.5,468.333 180.5,468.333 171.5,469C 168.979,471.22 166.812,473.72 165,476.5C 160.424,474.462 155.924,472.295 151.5,470C 153.085,466.423 153.252,462.923 152,459.5C 145.918,452.747 139.252,446.747 132,441.5C 129.476,442.104 126.976,442.771 124.5,443.5C 122.401,439.034 120.401,434.534 118.5,430C 121.28,428.188 123.78,426.021 126,423.5C 126.667,414.5 126.667,405.5 126,396.5C 123.795,393.96 121.295,391.793 118.5,390C 120.664,385.674 122.331,381.174 123.5,376.5C 127.463,377.44 131.463,377.607 135.5,377C 142.431,370.908 148.431,364.074 153.5,356.5C 152.885,353.961 152.218,351.461 151.5,349C 155.71,347.391 159.71,345.558 163.5,343.5 Z M 178.5,380.5 C 195.09,378.541 206.59,385.208 213,400.5C 216.923,418.49 210.423,430.99 193.5,438C 171.208,441.353 158.542,431.853 155.5,409.5C 156.897,394.778 164.564,385.112 178.5,380.5 Z"/></g>
<g><path style="opacity:0.878" fill="#000000" d="M 122.5,281.5 C 130.372,279.728 135.039,282.728 136.5,290.5C 135.107,297.801 130.774,300.634 123.5,299C 118.574,296.647 116.74,292.814 118,287.5C 118.599,284.746 120.099,282.746 122.5,281.5 Z"/></g>
<g><path style="opacity:0.886" fill="#010101" d="M 239.5,281.5 C 249.158,279.993 253.325,283.993 252,293.5C 249.647,298.426 245.814,300.26 240.5,299C 237.943,298.315 236.109,296.815 235,294.5C 233.243,288.825 234.743,284.492 239.5,281.5 Z"/></g>
<g><path style="opacity:0.922" fill="#000000" d="M 176.5,367.5 C 201.184,365.078 217.684,375.412 226,398.5C 230.389,424.566 220.222,442.066 195.5,451C 169.83,455.085 152.663,444.918 144,420.5C 140.082,393.652 150.916,375.985 176.5,367.5 Z M 178.5,380.5 C 164.564,385.112 156.897,394.778 155.5,409.5C 158.542,431.853 171.208,441.353 193.5,438C 210.423,430.99 216.923,418.49 213,400.5C 206.59,385.208 195.09,378.541 178.5,380.5 Z"/></g>
</svg>
