<?xml version="1.0" encoding="UTF-8"?>
<!DOCTYPE svg PUBLIC "-//W3C//DTD SVG 1.1//EN" "http://www.w3.org/Graphics/SVG/1.1/DTD/svg11.dtd">
<svg xmlns="http://www.w3.org/2000/svg" version="1.1" width="456px" height="548px" style="shape-rendering:geometricPrecision; text-rendering:geometricPrecision; image-rendering:optimizeQuality; fill-rule:evenodd; clip-rule:evenodd" xmlns:xlink="http://www.w3.org/1999/xlink">
<g><path style="opacity:0.963" fill="#0e0e0e" d="M 264.5,15.5 C 264.294,18.4951 264.96,21.1617 266.5,23.5C 269.967,37.0379 272.967,50.7045 275.5,64.5C 275.631,68.2206 274.631,71.5539 272.5,74.5C 272.167,74.5 271.833,74.5 271.5,74.5C 267.5,74.5 263.5,74.5 259.5,74.5C 259.168,119.336 259.501,164.003 260.5,208.5C 268.585,208.099 276.585,208.599 284.5,210C 285.701,210.903 286.535,212.069 287,213.5C 287.667,229.5 287.667,245.5 287,261.5C 285.681,263.487 283.848,264.654 281.5,265C 276.845,265.499 272.179,265.666 267.5,265.5C 267.334,274.839 267.5,284.173 268,293.5C 268.717,294.044 269.217,294.711 269.5,295.5C 268.561,296.327 268.895,296.994 270.5,297.5C 271.674,298.514 272.34,299.847 272.5,301.5C 272.63,305.525 273.63,309.191 275.5,312.5C 277.515,313.924 279.848,314.59 282.5,314.5C 294.567,317.867 305.9,322.867 316.5,329.5C 317.192,328.975 317.692,328.308 318,327.5C 321.948,296.807 325.115,266.141 327.5,235.5C 313.704,226.375 304.038,214.041 298.5,198.5C 298.741,196.102 298.074,194.102 296.5,192.5C 293.559,179.093 294.059,165.759 298,152.5C 298.898,149.931 300.065,147.598 301.5,145.5C 304,142.506 306,139.173 307.5,135.5C 309.262,134.738 310.262,133.404 310.5,131.5C 310.5,130.833 310.833,130.5 311.5,130.5C 313.167,129.5 314.5,128.167 315.5,126.5C 324.366,117.225 335.033,110.725 347.5,107C 350.924,106.253 354.257,106.42 357.5,107.5C 357.427,109.027 358.094,110.027 359.5,110.5C 360.16,111.964 360.493,113.631 360.5,115.5C 358.832,130.177 357.166,144.843 355.5,159.5C 364.556,160.136 373.556,161.136 382.5,162.5C 383.168,160.031 383.835,157.698 384.5,155.5C 385.884,150.056 386.55,144.389 386.5,138.5C 386.711,130.768 387.544,123.101 389,115.5C 391.206,111.98 394.373,110.48 398.5,111C 430.561,126.949 444.394,152.783 440,188.5C 436.164,207.523 426.331,222.523 410.5,233.5C 408.973,233.427 407.973,234.094 407.5,235.5C 403.849,236.659 400.515,238.326 397.5,240.5C 397.158,241.338 396.492,241.672 395.5,241.5C 394.5,241.5 393.5,241.5 392.5,241.5C 392.5,242.833 392.5,244.167 392.5,245.5C 387.607,293.208 382.273,340.875 376.5,388.5C 383.008,403.181 388.841,418.181 394,433.5C 397.229,446.999 399.396,460.665 400.5,474.5C 403.349,475.1 405.682,476.433 407.5,478.5C 407.973,479.906 408.973,480.573 410.5,480.5C 418.736,489.755 419.569,499.755 413,510.5C 411.296,512.373 409.463,514.04 407.5,515.5C 405.821,515.285 404.821,515.952 404.5,517.5C 385.877,518.308 367.21,518.808 348.5,519C 341.952,523.721 335.285,528.221 328.5,532.5C 326.973,532.427 325.973,533.094 325.5,534.5C 268.208,535.492 210.875,535.825 153.5,535.5C 147.976,532.908 142.976,529.575 138.5,525.5C 138.027,524.094 137.027,523.427 135.5,523.5C 135.167,523.5 134.833,523.5 134.5,523.5C 133.871,521.003 132.204,519.67 129.5,519.5C 111.125,519.918 92.7919,519.418 74.5,518C 68.3216,515.653 63.9883,511.487 61.5,505.5C 61.8432,503.517 61.1765,502.183 59.5,501.5C 58.2315,488.107 63.8982,479.107 76.5,474.5C 78.5994,457.337 81.5994,440.337 85.5,423.5C 81.1249,423.653 77.2916,422.32 74,419.5C 73.8299,413.804 73.3299,408.138 72.5,402.5C 71.914,402.291 71.414,401.957 71,401.5C 66.8672,404.631 63.0338,408.131 59.5,412C 56.2244,414.105 53.2244,413.938 50.5,411.5C 47.8333,408.167 44.8333,405.167 41.5,402.5C 34.5697,397.074 28.0697,391.074 22,384.5C 19.6754,381.258 19.3421,377.924 21,374.5C 24.3333,371.167 27.6667,367.833 31,364.5C 31.6667,363.833 31.6667,363.167 31,362.5C 25.0672,361.852 19.2339,361.186 13.5,360.5C 13.0269,359.094 12.0269,358.427 10.5,358.5C 10.0133,357.527 9.51328,356.527 9,355.5C 8.17266,341.327 8.33932,327.327 9.5,313.5C 11.1667,312.5 12.5,311.167 13.5,309.5C 19.2339,308.814 25.0672,308.148 31,307.5C 31.6667,306.833 31.6667,306.167 31,305.5C 27.2974,302.133 23.964,298.466 21,294.5C 20.3333,292.167 20.3333,289.833 21,287.5C 27.9549,280.38 35.1216,273.38 42.5,266.5C 45.5,264.167 48.1667,261.5 50.5,258.5C 53.7178,255.925 57.0512,255.925 60.5,258.5C 62.5566,262.067 65.2232,265.234 68.5,268C 70.0657,268.765 71.3991,268.598 72.5,267.5C 73.3272,262.015 73.8272,256.348 74,250.5C 74.8333,249.667 75.6667,248.833 76.5,248C 84.4268,246.881 92.4268,246.381 100.5,246.5C 108.266,246.365 115.933,246.865 123.5,248C 124.333,248.833 125.167,249.667 126,250.5C 126.499,256.157 126.666,261.824 126.5,267.5C 127.822,267.33 128.989,267.663 130,268.5C 133.036,265.296 136.203,262.296 139.5,259.5C 141.027,259.573 142.027,258.906 142.5,257.5C 144.726,256.244 147.059,256.244 149.5,257.5C 149.5,258.833 150.167,259.5 151.5,259.5C 161.495,268.661 170.995,278.328 180,288.5C 180.706,290.971 180.373,293.305 179,295.5C 175.667,298.833 172.333,302.167 169,305.5C 168.53,306.577 168.697,307.577 169.5,308.5C 175.7,309.243 182.034,309.91 188.5,310.5C 189.112,314.453 191.112,315.786 194.5,314.5C 196.828,313.282 199.328,312.282 202,311.5C 202.92,304.657 205.254,298.323 209,292.5C 209.5,283.506 209.666,274.506 209.5,265.5C 203.672,265.95 198.005,265.284 192.5,263.5C 191.416,262.335 190.583,261.002 190,259.5C 189.333,244.167 189.333,228.833 190,213.5C 191.339,210.906 193.506,209.406 196.5,209C 203.158,208.5 209.825,208.334 216.5,208.5C 216.5,164.167 216.5,119.833 216.5,75.5C 212.818,75.6653 209.152,75.4986 205.5,75C 201.672,71.7355 200.505,67.5689 202,62.5C 204.827,50.52 207.327,38.52 209.5,26.5C 211.04,24.1617 211.706,21.4951 211.5,18.5C 211.216,16.5853 211.549,14.9187 212.5,13.5C 213.674,12.4863 214.34,11.153 214.5,9.5C 214.918,8.77842 215.584,8.27842 216.5,8C 231.167,7.33333 245.833,7.33333 260.5,8C 263.521,9.53877 264.854,12.0388 264.5,15.5 Z M 250.5,23.5 C 252.835,35.5039 255.168,47.5039 257.5,59.5C 244.483,59.8325 231.483,59.4991 218.5,58.5C 220.885,49.2417 222.885,39.9083 224.5,30.5C 225.612,28.4006 226.279,26.0673 226.5,23.5C 234.5,23.5 242.5,23.5 250.5,23.5 Z M 232.5,75.5 C 236.5,75.5 240.5,75.5 244.5,75.5C 244.5,119.833 244.5,164.167 244.5,208.5C 240.5,208.5 236.5,208.5 232.5,208.5C 232.5,164.167 232.5,119.833 232.5,75.5 Z M 341.5,126.5 C 342.468,128.607 342.802,130.941 342.5,133.5C 340.359,145.287 339.192,157.287 339,169.5C 341.194,172.181 344.027,173.681 347.5,174C 362.826,175.778 378.16,177.111 393.5,178C 395.667,177.167 397.167,175.667 398,173.5C 399.885,160.199 401.552,146.865 403,133.5C 403.333,133.167 403.667,132.833 404,132.5C 408.413,136.408 412.247,140.741 415.5,145.5C 416.026,147.23 417.026,148.564 418.5,149.5C 419.264,152.018 420.264,154.351 421.5,156.5C 421.595,158.786 422.262,160.786 423.5,162.5C 423.232,164.099 423.566,165.432 424.5,166.5C 424.72,173.543 424.386,180.543 423.5,187.5C 423.5,187.833 423.5,188.167 423.5,188.5C 422.542,190.302 421.875,192.302 421.5,194.5C 420.559,196.05 419.893,197.716 419.5,199.5C 418.599,200.29 417.932,201.29 417.5,202.5C 415.555,206.736 412.888,210.403 409.5,213.5C 407.5,214.833 405.833,216.5 404.5,218.5C 400.5,220.833 396.5,223.167 392.5,225.5C 390.847,225.66 389.514,226.326 388.5,227.5C 386.214,227.595 384.214,228.262 382.5,229.5C 380.167,229.833 378.833,231.167 378.5,233.5C 373.596,279.137 368.429,324.804 363,370.5C 359.635,366.307 356.135,362.307 352.5,358.5C 351.833,357.167 350.833,356.167 349.5,355.5C 349.167,354.5 348.5,353.833 347.5,353.5C 346.833,352.167 345.833,351.167 344.5,350.5C 340.859,347.032 337.026,343.698 333,340.5C 332.833,339 332.667,337.5 332.5,336C 336.996,299.868 340.83,263.702 344,227.5C 337.819,223.075 331.819,218.408 326,213.5C 312.264,198.222 307.764,180.555 312.5,160.5C 313.738,158.786 314.405,156.786 314.5,154.5C 315.674,153.486 316.34,152.153 316.5,150.5C 317.906,150.027 318.573,149.027 318.5,147.5C 322.795,140.763 328.128,134.93 334.5,130C 336.577,128.295 338.91,127.128 341.5,126.5 Z M 205.5,224.5 C 227.5,224.5 249.5,224.5 271.5,224.5C 271.5,232.833 271.5,241.167 271.5,249.5C 249.5,249.5 227.5,249.5 205.5,249.5C 205.5,241.167 205.5,232.833 205.5,224.5 Z M 155.5,296.5 C 151.791,298.67 150.458,301.67 151.5,305.5C 153.313,310.468 155.146,315.468 157,320.5C 157.72,322.056 158.887,323.056 160.5,323.5C 162.833,324.167 165.167,324.833 167.5,325.5C 159.876,329.806 152.543,334.473 145.5,339.5C 143.596,339.738 142.262,340.738 141.5,342.5C 140.5,342.833 139.833,343.5 139.5,344.5C 138.167,344.5 137.5,343.833 137.5,342.5C 140.584,323.5 133.584,309.333 116.5,300C 100.849,294.414 86.5153,296.747 73.5,307C 70.5264,310.128 68.1931,313.628 66.5,317.5C 64.8958,318.287 64.2291,319.62 64.5,321.5C 58.1264,340.876 63.4598,356.376 80.5,368C 91.0736,373.344 102.074,374.511 113.5,371.5C 111.5,374.5 109.5,377.5 107.5,380.5C 106.094,380.973 105.427,381.973 105.5,383.5C 104.094,383.973 103.427,384.973 103.5,386.5C 102.662,386.842 102.328,387.508 102.5,388.5C 100.076,391.008 98.4097,394.008 97.5,397.5C 96.6618,397.842 96.3284,398.508 96.5,399.5C 95.3263,400.514 94.6596,401.847 94.5,403.5C 93.6091,404.261 92.9424,405.261 92.5,406.5C 91.3112,407.429 89.9778,407.762 88.5,407.5C 88.6659,402.489 88.4993,397.489 88,392.5C 82.8919,389.029 77.3919,386.195 71.5,384C 69.2884,383.211 67.2884,383.378 65.5,384.5C 63.5956,384.738 62.2623,385.738 61.5,387.5C 59.2034,389.294 57.0367,391.294 55,393.5C 49.738,388.783 44.5713,383.949 39.5,379C 44.2462,375.438 47.5796,370.938 49.5,365.5C 46.9038,359.546 44.4038,353.546 42,347.5C 40.103,345.984 37.9363,345.317 35.5,345.5C 32.1667,345.5 28.8333,345.5 25.5,345.5C 25.5,338.5 25.5,331.5 25.5,324.5C 30.3633,324.819 35.03,324.486 39.5,323.5C 41.0744,323.063 42.2411,322.063 43,320.5C 45.0281,314.944 47.1948,309.444 49.5,304C 47.327,298.82 43.9937,294.487 39.5,291C 44.5749,286.151 49.5749,281.318 54.5,276.5C 57.5638,279.57 60.8971,282.237 64.5,284.5C 65.3121,285.993 66.6455,286.66 68.5,286.5C 70.5566,286.564 72.2233,285.898 73.5,284.5C 78.319,283.173 82.819,281.173 87,278.5C 88.4038,272.956 88.9038,267.29 88.5,261.5C 96.1667,261.5 103.833,261.5 111.5,261.5C 111.334,266.511 111.501,271.511 112,276.5C 112.465,277.931 113.299,279.097 114.5,280C 120.368,281.678 126.034,283.844 131.5,286.5C 133.61,285.946 135.61,285.112 137.5,284C 140.016,281.317 142.683,278.817 145.5,276.5C 151.377,281.194 156.21,286.528 160,292.5C 158.333,293.733 156.833,295.067 155.5,296.5 Z M 225.5,265.5 C 234.167,265.5 242.833,265.5 251.5,265.5C 251.5,270.833 251.5,276.167 251.5,281.5C 242.833,278.833 234.167,278.833 225.5,281.5C 225.5,276.167 225.5,270.833 225.5,265.5 Z M 259.5,382.5 C 258.326,383.514 257.66,384.847 257.5,386.5C 256.317,387.504 254.984,388.338 253.5,389C 243.167,389.667 232.833,389.667 222.5,389C 220.622,387.457 219.122,385.624 218,383.5C 217.333,359.167 217.333,334.833 218,310.5C 223.976,296.596 234.143,292.096 248.5,297C 254.418,300.926 257.918,306.426 259,313.5C 259.5,336.498 259.667,359.498 259.5,382.5 Z M 98.5,312.5 C 114.473,313.969 122.639,322.636 123,338.5C 115.568,356.647 103.068,361.147 85.5,352C 74.0532,338.917 75.0532,326.917 88.5,316C 91.8502,314.514 95.1835,313.347 98.5,312.5 Z M 207.5,397.5 C 208.262,399.262 209.596,400.262 211.5,400.5C 213.649,402.746 216.316,404.246 219.5,405C 231.833,405.667 244.167,405.667 256.5,405C 266.732,402.345 272.732,395.845 274.5,385.5C 274.837,366.644 275.837,347.978 277.5,329.5C 283.629,331.433 289.629,333.766 295.5,336.5C 297.298,342.832 298.964,349.165 300.5,355.5C 300.565,358.428 301.232,361.095 302.5,363.5C 302.42,366.781 303.087,369.781 304.5,372.5C 305.754,381.78 307.754,390.78 310.5,399.5C 310.42,402.781 311.087,405.781 312.5,408.5C 312.42,411.781 313.087,414.781 314.5,417.5C 315.392,423.952 319.059,426.452 325.5,425C 326.931,424.535 328.097,423.701 329,422.5C 332.679,405.117 336.679,387.784 341,370.5C 342.704,372.373 344.537,374.04 346.5,375.5C 346.738,377.404 347.738,378.738 349.5,379.5C 370.313,407.593 381.646,439.26 383.5,474.5C 286.498,474.833 189.498,474.5 92.5,473.5C 94.0301,451.51 99.3635,430.51 108.5,410.5C 110.674,407.485 112.341,404.151 113.5,400.5C 117.892,394.066 122.059,387.399 126,380.5C 129.369,376.963 132.869,373.629 136.5,370.5C 136.42,373.781 137.087,376.781 138.5,379.5C 139.549,387.42 141.215,395.087 143.5,402.5C 143.882,407.092 144.882,411.425 146.5,415.5C 147.498,424.793 152.332,427.46 161,423.5C 167.476,395.255 173.81,366.922 180,338.5C 182.231,336.376 184.731,334.709 187.5,333.5C 189.553,333.598 191.22,332.931 192.5,331.5C 195.829,331.002 198.995,330.002 202,328.5C 202.333,348.5 202.667,368.5 203,388.5C 203.986,391.806 205.486,394.806 207.5,397.5 Z M 317.5,359.5 C 317.435,356.572 316.768,353.905 315.5,351.5C 315.343,350.127 315.51,348.793 316,347.5C 318.5,349.333 321,351.167 323.5,353C 325.448,354.439 326.781,356.272 327.5,358.5C 326.086,365.238 324.419,371.905 322.5,378.5C 320.702,372.168 319.036,365.835 317.5,359.5 Z M 161.5,348.5 C 159.656,358.887 157.489,369.22 155,379.5C 153.673,373.657 152.173,367.99 150.5,362.5C 150.15,359.959 150.15,357.626 150.5,355.5C 152.404,355.262 153.738,354.262 154.5,352.5C 155.71,352.068 156.71,351.401 157.5,350.5C 158.605,349.4 159.938,348.733 161.5,348.5 Z M 317.5,520.5 C 264.125,520.825 210.791,520.491 157.5,519.5C 157.027,518.094 156.027,517.427 154.5,517.5C 154.027,516.094 153.027,515.427 151.5,515.5C 145.83,510.661 139.497,506.828 132.5,504C 114.833,503.667 97.1667,503.333 79.5,503C 74.1964,498.902 74.1964,494.902 79.5,491C 185.5,490.333 291.5,490.333 397.5,491C 401.125,493.206 402.292,496.373 401,500.5C 400.097,501.701 398.931,502.535 397.5,503C 379.5,503.333 361.5,503.667 343.5,504C 334.331,508.749 325.664,514.249 317.5,520.5 Z"/></g>
<g><path style="opacity:0.039" fill="#bbbbbb" d="M 214.5,9.5 C 214.34,11.153 213.674,12.4863 212.5,13.5C 212.229,11.6203 212.896,10.287 214.5,9.5 Z"/></g>
<g><path style="opacity:0.275" fill="#6a6a6a" d="M 264.5,15.5 C 265.768,17.9052 266.435,20.5718 266.5,23.5C 264.96,21.1617 264.294,18.4951 264.5,15.5 Z"/></g>
<g><path style="opacity:0.222" fill="#878787" d="M 250.5,23.5 C 242.5,23.5 234.5,23.5 226.5,23.5C 226.279,26.0673 225.612,28.4006 224.5,30.5C 224.575,27.7938 224.908,25.1272 225.5,22.5C 234.017,22.1739 242.35,22.5073 250.5,23.5 Z"/></g>
<g><path style="opacity:0.024" fill="#c4c4c4" d="M 211.5,18.5 C 211.706,21.4951 211.04,24.1617 209.5,26.5C 209.565,23.5718 210.232,20.9052 211.5,18.5 Z"/></g>
<g><path style="opacity:0.076" fill="#b7b7b7" d="M 275.5,64.5 C 277.259,68.5638 276.259,71.8971 272.5,74.5C 274.631,71.5539 275.631,68.2206 275.5,64.5 Z"/></g>
<g><path style="opacity:0.094" fill="#505050" d="M 271.5,74.5 C 268.038,75.4816 264.371,75.815 260.5,75.5C 260.5,119.833 260.5,164.167 260.5,208.5C 259.501,164.003 259.168,119.336 259.5,74.5C 263.5,74.5 267.5,74.5 271.5,74.5 Z"/></g>
<g><path style="opacity:0.118" fill="#a5a5a5" d="M 357.5,107.5 C 358.906,107.973 359.573,108.973 359.5,110.5C 358.094,110.027 357.427,109.027 357.5,107.5 Z"/></g>
<g><path style="opacity:0.141" fill="#979797" d="M 315.5,126.5 C 314.5,128.167 313.167,129.5 311.5,130.5C 311.833,128.167 313.167,126.833 315.5,126.5 Z"/></g>
<g><path style="opacity:0.169" fill="#b2b2b2" d="M 341.5,126.5 C 341.56,125.957 341.893,125.624 342.5,125.5C 343.8,128.309 343.8,130.976 342.5,133.5C 342.802,130.941 342.468,128.607 341.5,126.5 Z"/></g>
<g><path style="opacity:0.314" fill="#8e8e8e" d="M 310.5,131.5 C 310.262,133.404 309.262,134.738 307.5,135.5C 307.738,133.596 308.738,132.262 310.5,131.5 Z"/></g>
<g><path style="opacity:0.102" fill="#adadad" d="M 307.5,135.5 C 306,139.173 304,142.506 301.5,145.5C 302.498,141.495 304.498,138.161 307.5,135.5 Z"/></g>
<g><path style="opacity:0.133" fill="#909090" d="M 415.5,145.5 C 417.446,146.035 418.446,147.368 418.5,149.5C 417.026,148.564 416.026,147.23 415.5,145.5 Z"/></g>
<g><path style="opacity:0.051" fill="#acacac" d="M 318.5,147.5 C 318.573,149.027 317.906,150.027 316.5,150.5C 316.427,148.973 317.094,147.973 318.5,147.5 Z"/></g>
<g><path style="opacity:0.169" fill="#aeaeae" d="M 386.5,138.5 C 386.55,144.389 385.884,150.056 384.5,155.5C 384.45,149.611 385.116,143.944 386.5,138.5 Z"/></g>
<g><path style="opacity:0.141" fill="#929292" d="M 314.5,154.5 C 314.405,156.786 313.738,158.786 312.5,160.5C 312.259,158.102 312.926,156.102 314.5,154.5 Z"/></g>
<g><path style="opacity:0.118" fill="#c8c8c8" d="M 421.5,156.5 C 423.074,158.102 423.741,160.102 423.5,162.5C 422.262,160.786 421.595,158.786 421.5,156.5 Z"/></g>
<g><path style="opacity:0.131" fill="#b4b4b4" d="M 424.5,166.5 C 425.653,172.653 425.82,178.986 425,185.5C 424.722,186.416 424.222,187.082 423.5,187.5C 424.386,180.543 424.72,173.543 424.5,166.5 Z"/></g>
<g><path style="opacity:0.129" fill="#acacac" d="M 423.5,188.5 C 423.946,191.01 423.28,193.01 421.5,194.5C 421.875,192.302 422.542,190.302 423.5,188.5 Z"/></g>
<g><path style="opacity:0.047" fill="#b6b6b6" d="M 296.5,192.5 C 298.074,194.102 298.741,196.102 298.5,198.5C 297.262,196.786 296.595,194.786 296.5,192.5 Z"/></g>
<g><path style="opacity:0.196" fill="#979797" d="M 419.5,199.5 C 419.715,201.179 419.048,202.179 417.5,202.5C 417.932,201.29 418.599,200.29 419.5,199.5 Z"/></g>
<g><path style="opacity:0.22" fill="#595959" d="M 409.5,213.5 C 409.001,216.264 407.335,217.931 404.5,218.5C 405.833,216.5 407.5,214.833 409.5,213.5 Z"/></g>
<g><path style="opacity:0.141" fill="#989898" d="M 392.5,225.5 C 391.713,227.104 390.38,227.771 388.5,227.5C 389.514,226.326 390.847,225.66 392.5,225.5 Z"/></g>
<g><path style="opacity:0.171" fill="#8d8d8d" d="M 388.5,227.5 C 386.898,229.074 384.898,229.741 382.5,229.5C 384.214,228.262 386.214,227.595 388.5,227.5 Z"/></g>
<g><path style="opacity:0.294" fill="#8f8f8f" d="M 382.5,229.5 C 381.5,231.167 380.167,232.5 378.5,233.5C 378.833,231.167 380.167,229.833 382.5,229.5 Z"/></g>
<g><path style="opacity:0.008" fill="#bdbdbd" d="M 410.5,233.5 C 410.027,234.906 409.027,235.573 407.5,235.5C 407.973,234.094 408.973,233.427 410.5,233.5 Z"/></g>
<g><path style="opacity:0.094" fill="#b2b2b2" d="M 407.5,235.5 C 404.753,238.207 401.42,239.873 397.5,240.5C 400.515,238.326 403.849,236.659 407.5,235.5 Z"/></g>
<g><path style="opacity:0.951" fill="#161616" d="M 349.5,271.5 C 350.946,265.726 351.612,259.726 351.5,253.5C 349.906,241.916 354.573,237.749 365.5,241C 366.786,243.022 367.786,245.189 368.5,247.5C 366.618,264.942 364.118,282.275 361,299.5C 356.042,303.715 351.375,303.381 347,298.5C 346.781,289.281 347.615,280.281 349.5,271.5 Z"/></g>
<g><path style="opacity:0.118" fill="#888888" d="M 395.5,241.5 C 394.341,242.74 393.341,244.074 392.5,245.5C 392.5,244.167 392.5,242.833 392.5,241.5C 393.5,241.5 394.5,241.5 395.5,241.5 Z"/></g>
<g><path style="opacity:0.251" fill="#858585" d="M 351.5,253.5 C 351.612,259.726 350.946,265.726 349.5,271.5C 349.523,265.288 350.19,259.288 351.5,253.5 Z"/></g>
<g><path style="opacity:0.165" fill="#9d9d9d" d="M 142.5,257.5 C 142.027,258.906 141.027,259.573 139.5,259.5C 139.973,258.094 140.973,257.427 142.5,257.5 Z"/></g>
<g><path style="opacity:0.161" fill="#b1b1b1" d="M 149.5,257.5 C 150.5,257.833 151.167,258.5 151.5,259.5C 150.167,259.5 149.5,258.833 149.5,257.5 Z"/></g>
<g><path style="opacity:0.169" fill="#a6a6a6" d="M 60.5,258.5 C 63.6306,261.129 66.6306,263.962 69.5,267C 70.448,267.483 71.448,267.649 72.5,267.5C 71.3991,268.598 70.0657,268.765 68.5,268C 65.2232,265.234 62.5566,262.067 60.5,258.5 Z"/></g>
<g><path style="opacity:0.078" fill="#c5c5c5" d="M 50.5,258.5 C 48.1667,261.5 45.5,264.167 42.5,266.5C 44.1667,262.833 46.8333,260.167 50.5,258.5 Z"/></g>
<g><path style="opacity:0.212" fill="#898989" d="M 54.5,276.5 C 54.8966,275.475 55.5632,275.308 56.5,276C 59.3714,278.703 62.0381,281.536 64.5,284.5C 60.8971,282.237 57.5638,279.57 54.5,276.5 Z"/></g>
<g><path style="opacity:0.082" fill="#c9c9c9" d="M 64.5,284.5 C 67.4773,285.678 70.4773,285.678 73.5,284.5C 72.2233,285.898 70.5566,286.564 68.5,286.5C 66.6455,286.66 65.3121,285.993 64.5,284.5 Z"/></g>
<g><path style="opacity:0.004" fill="#b7b7b7" d="M 269.5,295.5 C 270.338,295.842 270.672,296.508 270.5,297.5C 268.895,296.994 268.561,296.327 269.5,295.5 Z"/></g>
<g><path style="opacity:0.212" fill="#818181" d="M 155.5,296.5 C 153.406,299.097 152.073,302.097 151.5,305.5C 150.458,301.67 151.791,298.67 155.5,296.5 Z"/></g>
<g><path style="opacity:0.11" fill="#9c9c9c" d="M 272.5,301.5 C 274.118,304.888 275.118,308.554 275.5,312.5C 273.63,309.191 272.63,305.525 272.5,301.5 Z"/></g>
<g><path style="opacity:0.267" fill="#a8a8a8" d="M 169.5,308.5 C 175.509,308.334 181.509,308.501 187.5,309C 188.056,309.383 188.389,309.883 188.5,310.5C 182.034,309.91 175.7,309.243 169.5,308.5 Z"/></g>
<g><path style="opacity:0.212" fill="#9f9f9f" d="M 13.5,309.5 C 12.5,311.167 11.1667,312.5 9.5,313.5C 9.83333,311.167 11.1667,309.833 13.5,309.5 Z"/></g>
<g><path style="opacity:0.016" fill="#898989" d="M 275.5,312.5 C 278.152,312.41 280.485,313.076 282.5,314.5C 279.848,314.59 277.515,313.924 275.5,312.5 Z"/></g>
<g><path style="opacity:0.035" fill="#858585" d="M 188.5,310.5 C 190.127,312.464 192.127,313.797 194.5,314.5C 191.112,315.786 189.112,314.453 188.5,310.5 Z"/></g>
<g><path style="opacity:0.257" fill="#7b7b7b" d="M 66.5,317.5 C 66.3404,319.153 65.6737,320.486 64.5,321.5C 64.2291,319.62 64.8958,318.287 66.5,317.5 Z"/></g>
<g><path style="opacity:0.153" fill="#b3b3b3" d="M 160.5,323.5 C 163.518,323.335 166.518,323.502 169.5,324C 168.956,324.717 168.289,325.217 167.5,325.5C 165.167,324.833 162.833,324.167 160.5,323.5 Z"/></g>
<g><path style="opacity:0.027" fill="#a0a0a0" d="M 39.5,323.5 C 35.03,324.486 30.3633,324.819 25.5,324.5C 25.5,331.5 25.5,338.5 25.5,345.5C 28.8333,345.5 32.1667,345.5 35.5,345.5C 32.0381,346.482 28.3714,346.815 24.5,346.5C 24.5,338.833 24.5,331.167 24.5,323.5C 29.5,323.5 34.5,323.5 39.5,323.5 Z"/></g>
<g><path style="opacity:0.055" fill="#d0d0d0" d="M 192.5,331.5 C 191.22,332.931 189.553,333.598 187.5,333.5C 188.78,332.069 190.447,331.402 192.5,331.5 Z"/></g>
<g><path style="opacity:0.141" fill="#a4a4a4" d="M 277.5,329.5 C 275.837,347.978 274.837,366.644 274.5,385.5C 274.5,366.5 274.5,347.5 274.5,328.5C 275.791,328.263 276.791,328.596 277.5,329.5 Z"/></g>
<g><path style="opacity:0.114" fill="#a1a1a1" d="M 145.5,339.5 C 144.738,341.262 143.404,342.262 141.5,342.5C 142.262,340.738 143.596,339.738 145.5,339.5 Z"/></g>
<g><path style="opacity:0.125" fill="#7b7b7b" d="M 137.5,342.5 C 137.5,343.833 138.167,344.5 139.5,344.5C 138.878,345.627 138.045,346.627 137,347.5C 136.22,345.613 136.387,343.946 137.5,342.5 Z"/></g>
<g><path style="opacity:0.125" fill="#878787" d="M 157.5,350.5 C 156.71,351.401 155.71,352.068 154.5,352.5C 154.821,350.952 155.821,350.285 157.5,350.5 Z"/></g>
<g><path style="opacity:0.271" fill="#7b7b7b" d="M 344.5,350.5 C 345.833,351.167 346.833,352.167 347.5,353.5C 345.5,353.5 344.5,352.5 344.5,350.5 Z"/></g>
<g><path style="opacity:0.15" fill="#a5a5a5" d="M 315.5,351.5 C 316.768,353.905 317.435,356.572 317.5,359.5C 315.96,357.162 315.294,354.495 315.5,351.5 Z"/></g>
<g><path style="opacity:0.314" fill="#7b7b7b" d="M 349.5,355.5 C 350.833,356.167 351.833,357.167 352.5,358.5C 350.5,358.5 349.5,357.5 349.5,355.5 Z"/></g>
<g><path style="opacity:0.106" fill="#a2a2a2" d="M 10.5,358.5 C 12.0269,358.427 13.0269,359.094 13.5,360.5C 11.9731,360.573 10.9731,359.906 10.5,358.5 Z"/></g>
<g><path style="opacity:0.227" fill="#949494" d="M 150.5,355.5 C 150.15,357.626 150.15,359.959 150.5,362.5C 149.62,360.863 148.954,359.03 148.5,357C 148.836,355.97 149.503,355.47 150.5,355.5 Z"/></g>
<g><path style="opacity:0.031" fill="#a7a7a7" d="M 300.5,355.5 C 302.04,357.838 302.706,360.505 302.5,363.5C 301.232,361.095 300.565,358.428 300.5,355.5 Z"/></g>
<g><path style="opacity:0.069" fill="#a3a3a3" d="M 302.5,363.5 C 303.913,366.219 304.58,369.219 304.5,372.5C 303.087,369.781 302.42,366.781 302.5,363.5 Z"/></g>
<g><path style="opacity:0.17" fill="#adadad" d="M 136.5,370.5 C 137.913,373.219 138.58,376.219 138.5,379.5C 137.087,376.781 136.42,373.781 136.5,370.5 Z"/></g>
<g><path style="opacity:0.004" fill="#cdcdcd" d="M 346.5,375.5 C 348.262,376.262 349.262,377.596 349.5,379.5C 347.738,378.738 346.738,377.404 346.5,375.5 Z"/></g>
<g><path style="opacity:0.278" fill="#808080" d="M 107.5,380.5 C 107.573,382.027 106.906,383.027 105.5,383.5C 105.427,381.973 106.094,380.973 107.5,380.5 Z"/></g>
<g><path style="opacity:0.255" fill="#818181" d="M 105.5,383.5 C 105.573,385.027 104.906,386.027 103.5,386.5C 103.427,384.973 104.094,383.973 105.5,383.5 Z"/></g>
<g><path style="opacity:0.196" fill="#b9b9b9" d="M 259.5,382.5 C 259.771,384.38 259.104,385.713 257.5,386.5C 257.66,384.847 258.326,383.514 259.5,382.5 Z"/></g>
<g><path style="opacity:0.251" fill="#a4a4a4" d="M 65.5,384.5 C 64.7377,386.262 63.4044,387.262 61.5,387.5C 62.2623,385.738 63.5956,384.738 65.5,384.5 Z"/></g>
<g><path style="opacity:0.118" fill="#8e8e8e" d="M 102.5,388.5 C 101.59,391.992 99.9236,394.992 97.5,397.5C 98.4097,394.008 100.076,391.008 102.5,388.5 Z"/></g>
<g><path style="opacity:0.18" fill="#a5a5a5" d="M 207.5,397.5 C 209.404,397.738 210.738,398.738 211.5,400.5C 209.596,400.262 208.262,399.262 207.5,397.5 Z"/></g>
<g><path style="opacity:0.388" fill="#7c7c7c" d="M 96.5,399.5 C 96.7709,401.38 96.1042,402.713 94.5,403.5C 94.6596,401.847 95.3263,400.514 96.5,399.5 Z"/></g>
<g><path style="opacity:0.004" fill="#c7c7c7" d="M 41.5,402.5 C 44.8333,405.167 47.8333,408.167 50.5,411.5C 46.5,409.5 43.5,406.5 41.5,402.5 Z"/></g>
<g><path style="opacity:0.254" fill="#757575" d="M 310.5,399.5 C 311.913,402.219 312.58,405.219 312.5,408.5C 311.087,405.781 310.42,402.781 310.5,399.5 Z"/></g>
<g><path style="opacity:0.106" fill="#a6a6a6" d="M 113.5,400.5 C 112.341,404.151 110.674,407.485 108.5,410.5C 109.127,406.58 110.793,403.247 113.5,400.5 Z"/></g>
<g><path style="opacity:0.351" fill="#848484" d="M 143.5,402.5 C 145.373,406.515 146.373,410.849 146.5,415.5C 144.882,411.425 143.882,407.092 143.5,402.5 Z"/></g>
<g><path style="opacity:0.141" fill="#717171" d="M 312.5,408.5 C 313.913,411.219 314.58,414.219 314.5,417.5C 313.087,414.781 312.42,411.781 312.5,408.5 Z"/></g>
<g><path style="opacity:0.18" fill="#a4a4a4" d="M 292.5,436.5 C 254.79,436.179 217.124,436.512 179.5,437.5C 179.611,436.883 179.944,436.383 180.5,436C 218.002,435.169 255.336,435.336 292.5,436.5 Z"/></g>
<g><path style="opacity:0.932" fill="#020202" d="M 292.5,436.5 C 299.496,440.362 300.162,445.195 294.5,451C 257.168,451.5 219.835,451.667 182.5,451.5C 177.691,448.725 176.024,444.725 177.5,439.5C 177.5,438.167 178.167,437.5 179.5,437.5C 217.124,436.512 254.79,436.179 292.5,436.5 Z"/></g>
<g><path style="opacity:0.208" fill="#b0b0b0" d="M 177.5,439.5 C 176.024,444.725 177.691,448.725 182.5,451.5C 178.335,450.832 176.002,448.332 175.5,444C 175.899,442.272 176.566,440.772 177.5,439.5 Z"/></g>
<g><path style="opacity:0.02" fill="#a8a8a8" d="M 407.5,478.5 C 409.027,478.427 410.027,479.094 410.5,480.5C 408.973,480.573 407.973,479.906 407.5,478.5 Z"/></g>
<g><path style="opacity:0.284" fill="#8b8b8b" d="M 59.5,501.5 C 61.1765,502.183 61.8432,503.517 61.5,505.5C 60.6554,504.329 59.9887,502.995 59.5,501.5 Z"/></g>
<g><path style="opacity:0.137" fill="#868686" d="M 407.5,515.5 C 406.71,516.401 405.71,517.068 404.5,517.5C 404.821,515.952 405.821,515.285 407.5,515.5 Z"/></g>
<g><path style="opacity:0.031" fill="#b7b7b7" d="M 151.5,515.5 C 153.027,515.427 154.027,516.094 154.5,517.5C 152.973,517.573 151.973,516.906 151.5,515.5 Z"/></g>
<g><path style="opacity:0.024" fill="#afafaf" d="M 154.5,517.5 C 156.027,517.427 157.027,518.094 157.5,519.5C 155.973,519.573 154.973,518.906 154.5,517.5 Z"/></g>
<g><path style="opacity:0.102" fill="#868686" d="M 129.5,519.5 C 132.204,519.67 133.871,521.003 134.5,523.5C 132.611,522.396 130.945,521.063 129.5,519.5 Z"/></g>
<g><path style="opacity:0.188" fill="#9f9f9f" d="M 157.5,519.5 C 210.791,520.491 264.125,520.825 317.5,520.5C 264.668,521.665 211.668,521.832 158.5,521C 157.944,520.617 157.611,520.117 157.5,519.5 Z"/></g>
<g><path style="opacity:0.259" fill="#797979" d="M 135.5,523.5 C 137.027,523.427 138.027,524.094 138.5,525.5C 136.973,525.573 135.973,524.906 135.5,523.5 Z"/></g>
<g><path style="opacity:0.004" fill="#cbcbcb" d="M 328.5,532.5 C 328.027,533.906 327.027,534.573 325.5,534.5C 325.973,533.094 326.973,532.427 328.5,532.5 Z"/></g>
<g><path style="opacity:0.212" fill="#b8b8b8" d="M 325.5,534.5 C 325.389,535.117 325.056,535.617 324.5,536C 267.332,536.832 210.332,536.665 153.5,535.5C 210.875,535.825 268.208,535.492 325.5,534.5 Z"/></g>
</svg>
